<?xml version="1.0" encoding="UTF-8"?><svg id="a" xmlns="http://www.w3.org/2000/svg" viewBox="0 0 507.99 100"><defs><style>.b{fill:#b5a8aa;}.c{fill:#e63e25;}.d{fill:#69352a;stroke:#231f20;stroke-miterlimit:10;}.e{fill:#231f20;}</style></defs><g><rect class="e" x="3.6" y="2.5" width="499.23" height="95"/><path class="b" d="M500.32,5V95H6.1V5H500.32m5-5H1.1V100H505.32V0h0Z"/></g><g><g><path class="c" d="M19.46,64.67c-1.33,0-2.62-.08-3.84-.23-1.19-.15-2.47-.33-3.8-.55l-4.34,.51-.95-.11,.05-.49c.19-1.98,.37-4.12,.53-6.38,.16-2.26,.29-4.67,.4-7.16,.11-2.5,.21-5.06,.3-7.69,.09-2.63,.16-5.28,.21-7.94,.05-2.67,.09-5.32,.11-7.96s.03-5.2,.03-7.7c0-.59-.05-1.09-.14-1.5-.08-.36-.23-.65-.43-.87-.2-.21-.49-.38-.86-.49-.41-.12-.96-.18-1.63-.18-.96,0-2.21,.11-3.72,.33l-.51,.07-.33-2.97,.46-.09c1.36-.25,2.85-.52,4.45-.79,1.61-.27,3.28-.52,4.96-.74,1.7-.22,3.42-.41,5.14-.55,1.72-.14,3.4-.21,5.01-.21,1.31,0,2.62,.07,3.89,.2,1.28,.14,2.5,.36,3.64,.68,1.16,.32,2.23,.75,3.2,1.28,.99,.54,1.85,1.22,2.58,2.02,.73,.81,1.3,1.77,1.71,2.86,.41,1.09,.61,2.35,.61,3.75,0,1.99-.37,3.79-1.09,5.36-.72,1.55-1.7,2.93-2.92,4.08-1.21,1.14-2.63,2.11-4.2,2.89-.98,.48-2.01,.91-3.06,1.27,1.53,.21,2.98,.52,4.33,.94,1.95,.6,3.66,1.46,5.09,2.57,1.44,1.12,2.59,2.52,3.4,4.17,.82,1.65,1.23,3.62,1.23,5.85,0,1.87-.26,3.58-.78,5.1-.52,1.51-1.24,2.87-2.15,4.05-.91,1.17-2,2.19-3.24,3.02-1.23,.83-2.59,1.52-4.02,2.05-1.42,.53-2.95,.93-4.54,1.18-1.57,.25-3.18,.38-4.79,.38Zm-6.09-4.32c.95,.22,1.86,.38,2.73,.47,.99,.1,2.01,.15,3.02,.15,1.8,0,3.51-.22,5.07-.67,1.54-.43,2.89-1.13,4.02-2.06,1.12-.92,2.02-2.13,2.66-3.58,.65-1.46,.98-3.25,.98-5.3,0-1.91-.33-3.6-.99-5.03-.65-1.42-1.61-2.62-2.84-3.57-1.25-.96-2.82-1.69-4.65-2.17-1.86-.49-4.02-.73-6.42-.73-.47,0-.95,.01-1.45,.03-.35,.02-.7,.03-1.05,.05-.03,.81-.06,1.72-.1,2.74-.04,1.22-.1,2.52-.16,3.92l-.19,4.31c-.07,1.48-.14,2.93-.21,4.35-.08,1.42-.15,2.78-.22,4.06-.06,1.11-.13,2.12-.19,3.02Zm1.59-42.36c-.03,1.41-.07,3-.11,4.76l-.3,11.73c1.1-.04,2.2-.15,3.28-.3,1.25-.18,2.45-.46,3.57-.82,1.12-.36,2.16-.84,3.11-1.42,.94-.57,1.76-1.28,2.45-2.08,.68-.8,1.23-1.76,1.62-2.84,.39-1.08,.59-2.34,.59-3.74,0-1.64-.26-3.03-.78-4.14-.52-1.1-1.23-2-2.12-2.66-.91-.67-1.98-1.17-3.21-1.46-1.25-.3-2.61-.46-4.04-.46-.7,0-1.43,.03-2.17,.09-.6,.05-1.22,.12-1.82,.2-.01,.89-.03,1.94-.06,3.16Z"/><path class="e" d="M20.56,11.5c1.3,0,2.58,.07,3.83,.2,1.26,.13,2.44,.36,3.57,.66,1.12,.31,2.15,.72,3.09,1.23,.94,.52,1.76,1.15,2.44,1.92,.69,.76,1.23,1.66,1.61,2.7,.39,1.04,.58,2.23,.58,3.58,0,1.93-.35,3.64-1.04,5.15-.69,1.5-1.63,2.81-2.81,3.92-1.18,1.11-2.54,2.05-4.08,2.8-1.54,.75-3.16,1.36-4.87,1.81v.2c2.24,.17,4.31,.54,6.21,1.12,1.9,.58,3.54,1.41,4.93,2.49,1.39,1.08,2.48,2.41,3.26,3.99,.78,1.58,1.18,3.46,1.18,5.63,0,1.82-.25,3.47-.75,4.93-.5,1.46-1.19,2.77-2.07,3.9-.88,1.14-1.92,2.11-3.13,2.92-1.2,.81-2.51,1.47-3.91,2-1.41,.52-2.89,.91-4.44,1.16-1.56,.25-3.12,.37-4.71,.37-1.32,0-2.58-.08-3.78-.22-1.2-.15-2.49-.34-3.85-.56l-4.35,.52-.4-.04c.19-1.97,.37-4.1,.53-6.39,.16-2.29,.29-4.68,.4-7.18,.11-2.5,.21-5.06,.3-7.69,.09-2.63,.16-5.28,.21-7.95,.05-2.67,.09-5.32,.11-7.96,.02-2.64,.03-5.21,.03-7.7,0-.63-.05-1.17-.16-1.61-.1-.45-.29-.81-.55-1.1-.26-.28-.62-.49-1.09-.63-.46-.13-1.05-.2-1.77-.2-.99,0-2.25,.11-3.79,.34l-.22-2c1.36-.25,2.84-.52,4.44-.78,1.6-.27,3.25-.52,4.94-.74,1.7-.22,3.4-.41,5.11-.55,1.71-.14,3.37-.21,4.97-.21m-6.53,23.5c1.3-.03,2.59-.14,3.87-.33,1.28-.19,2.5-.47,3.66-.84,1.16-.37,2.23-.86,3.22-1.47,.99-.61,1.84-1.33,2.57-2.19,.73-.85,1.29-1.85,1.7-2.99,.41-1.14,.62-2.45,.62-3.91,0-1.72-.28-3.17-.83-4.35-.55-1.18-1.31-2.13-2.28-2.85-.96-.72-2.09-1.23-3.39-1.55-1.29-.31-2.68-.47-4.16-.47-.72,0-1.45,.03-2.21,.09-.76,.06-1.51,.15-2.28,.27-.01,.97-.04,2.16-.07,3.58-.03,1.41-.07,3-.11,4.75-.04,1.76-.09,3.67-.15,5.73-.05,2.06-.11,4.24-.17,6.53m5.09,26.48c1.85,0,3.59-.23,5.2-.68,1.61-.46,3.02-1.17,4.2-2.15,1.19-.98,2.12-2.24,2.8-3.77,.68-1.53,1.02-3.37,1.02-5.51,0-1.99-.34-3.73-1.03-5.24-.69-1.5-1.69-2.75-2.99-3.76-1.31-1-2.92-1.75-4.83-2.25-1.91-.5-4.1-.75-6.55-.75-.48,0-.97,.01-1.47,.03-.5,.02-1.01,.05-1.51,.08-.03,.91-.07,1.98-.11,3.2-.04,1.22-.1,2.52-.16,3.91-.06,1.39-.12,2.83-.19,4.31-.07,1.48-.14,2.93-.21,4.35-.07,1.42-.15,2.77-.22,4.06-.07,1.29-.15,2.43-.22,3.43,1.12,.28,2.19,.48,3.21,.58,1.02,.1,2.04,.16,3.07,.16m1.44-50.98c-1.62,0-3.32,.07-5.05,.22-1.72,.14-3.46,.33-5.16,.55-1.69,.22-3.37,.47-4.98,.75-1.59,.27-3.09,.53-4.46,.79l-.91,.17,.1,.92,.22,2,.12,1.03,1.02-.15c1.48-.22,2.71-.33,3.65-.33,.62,0,1.12,.05,1.49,.16,.28,.08,.5,.2,.63,.35,.14,.15,.25,.37,.31,.65,.09,.37,.13,.84,.13,1.39,0,2.49-.01,5.06-.03,7.69-.02,2.61-.06,5.28-.11,7.95-.05,2.66-.12,5.33-.21,7.93-.09,2.6-.19,5.18-.3,7.68-.11,2.49-.25,4.9-.4,7.15-.15,2.25-.33,4.39-.52,6.36l-.1,.98,.98,.11,.4,.04h.23l4.21-.5c1.31,.21,2.57,.4,3.75,.54,1.24,.15,2.55,.23,3.9,.23,1.63,0,3.27-.13,4.87-.38,1.62-.26,3.18-.66,4.63-1.21,1.47-.55,2.85-1.25,4.12-2.1,1.29-.86,2.42-1.92,3.36-3.13,.95-1.22,1.7-2.63,2.23-4.19,.53-1.56,.81-3.33,.81-5.26,0-2.31-.43-4.36-1.28-6.07-.85-1.72-2.04-3.17-3.55-4.34-1.48-1.15-3.25-2.04-5.25-2.65-.82-.25-1.69-.47-2.58-.65,.47-.2,.93-.41,1.38-.63,1.62-.8,3.08-1.8,4.33-2.97,1.27-1.2,2.29-2.62,3.04-4.23,.75-1.63,1.14-3.5,1.14-5.57,0-1.46-.22-2.78-.65-3.93-.43-1.15-1.04-2.17-1.81-3.02-.76-.84-1.67-1.56-2.71-2.12-1-.55-2.12-.99-3.31-1.32-1.17-.32-2.42-.55-3.72-.69-1.28-.14-2.61-.21-3.94-.21h0Zm-5.05,4.78c.46-.06,.92-.11,1.37-.14,.73-.06,1.45-.09,2.13-.09,1.39,0,2.71,.15,3.92,.44,1.16,.28,2.17,.74,3.03,1.38,.83,.61,1.49,1.44,1.97,2.47,.49,1.04,.74,2.36,.74,3.93,0,1.34-.19,2.55-.56,3.57-.37,1.03-.88,1.93-1.53,2.68-.65,.77-1.44,1.43-2.33,1.98-.92,.56-1.93,1.02-3,1.37-1.1,.36-2.28,.63-3.49,.8-.89,.13-1.79,.22-2.7,.27l.14-5.46,.15-5.71c.05-1.78,.08-3.37,.11-4.78,.02-1.03,.04-1.93,.05-2.73h0Zm-.58,23.15c.2,0,.39-.02,.59-.03,.49-.02,.96-.03,1.42-.03,2.36,0,4.47,.24,6.3,.72,1.77,.46,3.28,1.16,4.48,2.08,1.17,.9,2.08,2.03,2.69,3.38,.62,1.36,.94,2.99,.94,4.82,0,1.99-.31,3.7-.93,5.1-.61,1.38-1.46,2.53-2.53,3.4-1.08,.89-2.37,1.55-3.84,1.96-1.52,.43-3.18,.65-4.93,.65-1,0-2-.05-2.97-.15-.72-.07-1.47-.2-2.25-.37,.05-.79,.11-1.65,.16-2.6,.07-1.29,.15-2.64,.22-4.06,.07-1.42,.15-2.87,.21-4.36,.07-1.48,.13-2.92,.19-4.31,.06-1.39,.11-2.7,.16-3.92,.03-.83,.06-1.59,.08-2.28h0Z"/></g><g><path class="c" d="M45.97,64.57l.04-.51c.12-1.42,.23-2.96,.34-4.63,.1-1.67,.2-3.37,.29-5.1,.09-1.72,.17-3.43,.24-5.13,.07-1.7,.13-3.28,.18-4.75,.05-1.47,.09-2.79,.11-3.95,.02-1.16,.03-2.08,.03-2.75,0-.53-.02-1-.06-1.38-.04-.33-.12-.6-.24-.81-.1-.18-.25-.3-.45-.39-.24-.1-.58-.15-1.02-.15-.24,0-.48,.01-.73,.04-.26,.03-.55,.07-.86,.13-.32,.06-.68,.13-1.08,.23-.41,.1-1.92,.47-1.92,.47l-.53-2.55,.41-.15c2.49-.9,4.53-1.54,6.09-1.91,1.59-.38,2.65-.56,3.23-.56,1.15,0,2,.36,2.52,1.07,.5,.67,.74,1.61,.74,2.87,0,.11-.01,.42-.05,.95l-.12,1.99c-.05,.82-.12,1.76-.19,2.84-.08,1.08-.16,2.24-.26,3.47-.08,1.07-.18,2.19-.28,3.34,.4-1.34,.82-2.63,1.26-3.86,.91-2.55,1.95-4.81,3.09-6.69,1.15-1.91,2.45-3.44,3.84-4.54,1.44-1.14,3.04-1.71,4.76-1.71,.62,0,1.22,.1,1.76,.3,.55,.2,1.04,.49,1.44,.85,.41,.36,.73,.8,.97,1.3,.24,.51,.36,1.07,.36,1.66,0,.75-.16,1.47-.49,2.15-.32,.69-.84,1.31-1.53,1.83l-.13,.1h-.53l-.14-.12c-.59-.49-1.14-.84-1.65-1.05-.5-.21-1.03-.31-1.59-.31-.6,0-1.2,.12-1.76,.34-.57,.23-1.1,.57-1.58,1-.81,.74-1.58,1.74-2.28,2.96-.72,1.25-1.38,2.66-1.98,4.18-.6,1.54-1.14,3.17-1.62,4.85-.48,1.7-.9,3.37-1.25,4.97-.35,1.61-.63,3.13-.85,4.54-.21,1.41-.37,2.61-.46,3.57l-.04,.4-5.13,.64-.92-.06Z"/><path class="e" d="M65.35,30.94c.57,0,1.1,.09,1.59,.27,.49,.18,.92,.43,1.28,.75,.36,.32,.64,.7,.85,1.14,.21,.44,.31,.92,.31,1.45,0,.67-.15,1.32-.44,1.94-.29,.62-.75,1.17-1.38,1.65h-.18c-.63-.52-1.22-.9-1.78-1.13-.56-.23-1.15-.35-1.78-.35-.67,0-1.32,.13-1.95,.38-.63,.25-1.2,.62-1.73,1.1-.85,.78-1.64,1.8-2.38,3.08-.73,1.28-1.4,2.7-2.01,4.25-.61,1.55-1.15,3.19-1.64,4.9-.49,1.71-.9,3.38-1.26,5-.35,1.62-.64,3.15-.85,4.57-.22,1.43-.37,2.63-.46,3.6l-4.69,.58-.36-.02c.12-1.42,.23-2.97,.34-4.64,.1-1.67,.2-3.38,.29-5.1,.09-1.73,.17-3.44,.24-5.14,.07-1.7,.13-3.28,.18-4.75,.05-1.47,.09-2.79,.11-3.96,.02-1.17,.03-2.09,.03-2.76,0-.55-.02-1.03-.07-1.44-.04-.4-.15-.74-.3-1.01-.16-.27-.38-.47-.68-.59-.3-.13-.7-.19-1.21-.19-.25,0-.52,.02-.79,.04-.27,.03-.57,.08-.9,.13-.33,.06-.7,.14-1.11,.24-.41,.1-.89,.21-1.42,.35l-.34-1.61c2.48-.9,4.49-1.53,6.03-1.9,1.54-.37,2.58-.55,3.12-.55,.99,0,1.69,.29,2.12,.86,.43,.58,.64,1.43,.64,2.57,0,.1-.01,.41-.04,.92-.03,.51-.07,1.17-.12,1.98-.05,.82-.12,1.76-.19,2.84-.08,1.08-.16,2.23-.26,3.46-.1,1.23-.21,2.52-.32,3.86-.12,1.34-.25,2.67-.38,4l.22,.02c.72-2.93,1.53-5.66,2.43-8.2,.9-2.53,1.92-4.74,3.05-6.6,1.13-1.87,2.37-3.34,3.72-4.41,1.35-1.07,2.84-1.6,4.45-1.6m0-1c-1.84,0-3.54,.61-5.07,1.82-1.44,1.14-2.77,2.71-3.96,4.67-1.13,1.88-2.17,4.11-3.08,6.63,.07-.91,.13-1.77,.19-2.59,.07-1.08,.14-2.03,.19-2.84,.05-.82,.09-1.48,.12-1.99,.03-.54,.05-.87,.05-.98,0-1.37-.27-2.4-.83-3.16-.62-.84-1.61-1.27-2.92-1.27-.63,0-1.69,.18-3.35,.58-1.57,.37-3.64,1.02-6.14,1.93l-.82,.29,.18,.85,.34,1.61,.21,1.02,1.01-.25c.53-.13,1-.25,1.41-.34,.39-.09,.74-.17,1.06-.22,.3-.06,.58-.1,.83-.13,.23-.03,.46-.04,.67-.04,.49,0,.72,.07,.82,.11,.13,.05,.18,.12,.21,.18,.09,.15,.14,.36,.17,.62,.04,.37,.06,.81,.06,1.33,0,.67-.01,1.58-.03,2.74-.02,1.16-.06,2.48-.11,3.94-.05,1.47-.11,3.05-.18,4.75-.07,1.69-.15,3.4-.23,5.12-.09,1.72-.19,3.42-.29,5.09-.11,1.68-.22,3.23-.33,4.62l-.09,1.02,1.02,.06,.36,.02h.19l4.69-.59,.8-.1,.07-.8c.09-.95,.24-2.14,.45-3.54,.21-1.4,.5-2.92,.84-4.51,.34-1.59,.76-3.25,1.24-4.94,.47-1.67,1.01-3.29,1.61-4.81,.59-1.5,1.24-2.89,1.94-4.12,.68-1.18,1.41-2.14,2.18-2.84,.43-.4,.91-.7,1.43-.91,.51-.21,1.03-.31,1.58-.31,.5,0,.96,.09,1.4,.27,.46,.19,.98,.52,1.52,.98l.28,.23h.88l.27-.2c.75-.57,1.32-1.25,1.68-2.02,.35-.75,.53-1.55,.53-2.37,0-.67-.14-1.3-.41-1.87-.27-.56-.63-1.05-1.09-1.46-.45-.41-.99-.72-1.6-.95-.6-.22-1.25-.33-1.93-.33h0Z"/></g><g><path class="c" d="M75.77,65.17c-1.09,0-2.11-.19-3.02-.58-.91-.38-1.7-.92-2.35-1.59-.65-.67-1.16-1.48-1.52-2.39-.36-.92-.54-1.92-.54-3,0-1.38,.26-2.66,.77-3.79,.51-1.13,1.22-2.15,2.12-3.04,.89-.88,1.97-1.66,3.21-2.3,1.22-.63,2.56-1.17,3.99-1.58,1.43-.42,2.95-.73,4.54-.94,1.44-.18,2.92-.29,4.41-.3,.08-.78,.15-1.54,.21-2.28,.07-.86,.1-1.83,.1-2.88,0-1.1-.18-2.07-.54-2.87-.36-.8-.83-1.46-1.4-1.96-.58-.51-1.23-.89-1.96-1.13-.74-.25-1.48-.38-2.22-.38-1.01,0-1.86,.11-2.54,.31-.66,.2-1.2,.48-1.6,.82-.39,.33-.67,.73-.84,1.18-.18,.47-.27,.99-.27,1.54,0,.66,.12,1.33,.36,1.99,.24,.68,.61,1.35,1.09,1.99l.16,.22-.25,.69-.18,.09c-.92,.45-1.86,.68-2.8,.68-.56,0-1.1-.09-1.59-.26-.5-.18-.94-.44-1.32-.79s-.67-.77-.88-1.27c-.21-.49-.32-1.05-.32-1.66,0-.96,.24-1.88,.7-2.73,.45-.82,1.06-1.58,1.79-2.26,.73-.67,1.58-1.27,2.54-1.8,.95-.52,1.94-.96,2.94-1.32,1.01-.36,2.03-.64,3.05-.83,1.02-.19,1.98-.29,2.86-.29,1.62,0,3.04,.22,4.2,.66,1.19,.45,2.17,1.11,2.92,1.97,.74,.85,1.29,1.89,1.63,3.1,.33,1.18,.5,2.52,.5,3.99,0,.99-.04,2.1-.12,3.29-.08,1.18-.18,2.42-.28,3.72-.1,1.29-.2,2.62-.28,3.99-.08,1.36-.12,2.73-.12,4.08,0,2.03,.37,3.57,1.1,4.56,.71,.96,1.6,1.42,2.75,1.42,1.05,0,2.27-.41,3.6-1.21l.41-.24,1.15,1.7-.29,.29c-1.04,1.04-2.19,1.85-3.43,2.39-1.24,.55-2.56,.83-3.92,.83-1.03,0-2-.18-2.88-.53-.89-.36-1.67-.89-2.31-1.59-.64-.7-1.15-1.59-1.5-2.64-.34-1.03-.52-2.24-.52-3.59,0-.12,0-.23,0-.35-.4,.68-.82,1.36-1.28,2.03-.86,1.27-1.82,2.42-2.85,3.42-1.04,1.01-2.16,1.83-3.34,2.46-1.21,.64-2.5,.97-3.83,.97Zm11.32-16.64c-.9,.04-1.8,.1-2.68,.19-1.06,.11-2.08,.28-3.04,.51-.94,.23-1.83,.54-2.63,.91-.78,.36-1.47,.82-2.03,1.36-.55,.53-.99,1.16-1.31,1.88-.31,.72-.47,1.57-.47,2.52,0,.54,.06,1.06,.18,1.55,.11,.47,.29,.88,.53,1.23,.23,.34,.52,.6,.88,.8,.35,.19,.79,.29,1.3,.29,.6,0,1.24-.14,1.88-.43,.67-.29,1.35-.71,2.01-1.23,.67-.53,1.31-1.17,1.92-1.91,.61-.74,1.17-1.57,1.67-2.45,.49-.88,.9-1.82,1.23-2.8,.26-.79,.45-1.6,.57-2.43Z"/><path class="e" d="M84.47,30.96c1.57,0,2.91,.21,4.03,.63,1.11,.42,2.02,1.03,2.71,1.83,.69,.8,1.2,1.77,1.52,2.9,.32,1.14,.48,2.42,.48,3.86,0,.99-.04,2.07-.12,3.25-.08,1.18-.18,2.42-.28,3.71-.1,1.29-.2,2.63-.28,4-.08,1.38-.12,2.74-.12,4.1,0,2.15,.4,3.77,1.2,4.85,.8,1.08,1.85,1.63,3.15,1.63,1.15,0,2.44-.43,3.86-1.28l.65,.96c-1,1-2.09,1.76-3.27,2.29-1.18,.52-2.42,.78-3.72,.78-.97,0-1.87-.16-2.69-.49-.82-.33-1.53-.82-2.13-1.47-.6-.65-1.06-1.47-1.39-2.46-.33-.99-.49-2.13-.49-3.43,0-.39,.01-.78,.03-1.17,.02-.39,.07-.8,.15-1.23h-.13c-.64,1.29-1.39,2.55-2.23,3.8-.84,1.25-1.77,2.36-2.78,3.34-1.01,.98-2.09,1.77-3.23,2.38-1.14,.61-2.34,.91-3.6,.91-1.03,0-1.97-.18-2.83-.54-.85-.36-1.58-.85-2.19-1.48s-1.08-1.37-1.41-2.23c-.34-.86-.5-1.8-.5-2.81,0-1.32,.24-2.51,.73-3.59,.49-1.08,1.16-2.04,2.02-2.89,.86-.85,1.89-1.59,3.08-2.21,1.2-.62,2.5-1.14,3.9-1.55,1.41-.41,2.89-.72,4.46-.92,1.57-.2,3.17-.3,4.8-.3,.1-.94,.19-1.85,.26-2.74,.07-.88,.1-1.85,.1-2.92,0-1.18-.19-2.21-.58-3.07-.39-.87-.9-1.58-1.52-2.13s-1.34-.96-2.13-1.23c-.79-.27-1.58-.4-2.38-.4-1.06,0-1.96,.11-2.69,.34-.73,.22-1.33,.53-1.78,.92-.46,.39-.79,.85-.99,1.38-.2,.53-.3,1.1-.3,1.72,0,.72,.13,1.44,.39,2.16,.26,.73,.65,1.43,1.15,2.12l-.09,.25c-.85,.42-1.71,.63-2.58,.63-.51,0-.98-.08-1.42-.24-.44-.16-.82-.38-1.14-.68-.32-.3-.58-.67-.76-1.1-.19-.43-.28-.92-.28-1.46,0-.88,.21-1.71,.64-2.49,.43-.78,.99-1.49,1.69-2.13,.7-.64,1.52-1.22,2.44-1.73,.93-.51,1.88-.94,2.87-1.29,.99-.35,1.98-.62,2.97-.81,.99-.19,1.92-.28,2.77-.28m3.18,17.04c-1.11,.03-2.21,.1-3.3,.21-1.09,.11-2.13,.29-3.11,.53-.98,.24-1.89,.55-2.72,.94-.84,.39-1.56,.87-2.16,1.45s-1.08,1.26-1.42,2.04c-.34,.78-.52,1.69-.52,2.72,0,.58,.06,1.14,.19,1.67,.13,.53,.33,1,.61,1.4,.28,.4,.63,.72,1.05,.95,.43,.23,.94,.35,1.54,.35,.67,0,1.37-.16,2.09-.47,.72-.31,1.42-.75,2.12-1.3,.69-.55,1.36-1.21,2-1.98,.64-.77,1.21-1.61,1.72-2.52,.51-.91,.93-1.87,1.27-2.88,.34-1.01,.56-2.04,.66-3.11m-3.18-18.04c-.91,0-1.9,.1-2.95,.3-1.04,.2-2.09,.48-3.12,.85-1.03,.37-2.05,.82-3.02,1.35-.99,.54-1.88,1.17-2.64,1.87-.78,.71-1.42,1.52-1.9,2.39-.51,.92-.76,1.92-.76,2.97,0,.67,.12,1.3,.36,1.85,.24,.56,.58,1.04,1,1.43,.42,.39,.92,.69,1.49,.89,.54,.19,1.14,.29,1.76,.29,1.02,0,2.03-.25,3.02-.73l.36-.18,.14-.38,.09-.25,.18-.51-.32-.43c-.45-.61-.79-1.23-1.02-1.86-.22-.61-.33-1.23-.33-1.83,0-.49,.08-.95,.24-1.36,.14-.37,.37-.69,.7-.97,.35-.3,.83-.54,1.43-.72,.63-.19,1.44-.29,2.4-.29,.68,0,1.37,.12,2.06,.35,.66,.23,1.27,.57,1.79,1.04,.52,.46,.95,1.06,1.27,1.79,.33,.73,.5,1.63,.5,2.66s-.03,1.99-.1,2.84c-.05,.59-.1,1.2-.16,1.82-1.36,.03-2.71,.13-4.03,.3-1.61,.21-3.16,.53-4.62,.95-1.46,.43-2.83,.97-4.08,1.62-1.28,.66-2.4,1.47-3.33,2.39-.94,.94-1.69,2.01-2.23,3.19-.54,1.2-.82,2.55-.82,4,0,1.14,.19,2.21,.57,3.18,.38,.98,.93,1.84,1.62,2.56,.7,.72,1.55,1.3,2.52,1.71,.97,.41,2.05,.62,3.21,.62,1.41,0,2.78-.34,4.07-1.02,1.22-.65,2.39-1.5,3.46-2.54,1.05-1.02,2.03-2.2,2.91-3.5,.14-.21,.28-.42,.42-.63,.08,.88,.24,1.69,.49,2.42,.37,1.12,.91,2.06,1.6,2.82,.7,.76,1.54,1.34,2.49,1.72,.94,.37,1.97,.56,3.06,.56,1.43,0,2.82-.29,4.13-.87,1.29-.57,2.49-1.41,3.58-2.5l.58-.58-.46-.68-.65-.96-.53-.79-.81,.49c-1.26,.75-2.38,1.14-3.34,1.14s-1.73-.39-2.35-1.22c-.67-.9-1-2.34-1-4.26,0-1.33,.04-2.7,.12-4.04,.08-1.34,.17-2.68,.28-3.98,.1-1.3,.2-2.54,.28-3.72,.08-1.2,.13-2.32,.13-3.32,0-1.52-.17-2.91-.52-4.13-.36-1.27-.94-2.38-1.73-3.29-.8-.92-1.85-1.63-3.12-2.11-1.22-.46-2.7-.69-4.38-.69h0Zm-6.66,29.31c-.43,0-.78-.08-1.06-.23-.29-.16-.52-.37-.71-.64-.21-.3-.36-.66-.46-1.07-.11-.45-.16-.94-.16-1.44,0-.89,.15-1.67,.43-2.32,.29-.66,.69-1.24,1.2-1.72,.52-.5,1.16-.92,1.9-1.26,.78-.36,1.63-.66,2.54-.88,.94-.23,1.94-.4,2.97-.5,.67-.07,1.35-.12,2.04-.16-.11,.59-.26,1.17-.45,1.74-.31,.94-.72,1.86-1.19,2.71-.48,.86-1.02,1.65-1.61,2.37-.59,.71-1.21,1.33-1.85,1.84-.62,.5-1.26,.89-1.9,1.17-.59,.26-1.15,.39-1.68,.39h0Z"/></g><g><path class="c" d="M129.86,65.03c-.93,0-1.69-.26-2.25-.79-.52-.49-.92-1.16-1.18-1.99-.24-.78-.4-1.7-.47-2.74-.07-1.01-.1-2.11-.1-3.26,0-1.41,.05-2.89,.15-4.37,.1-1.49,.21-2.91,.33-4.26l.32-3.67c.1-1.08,.14-1.95,.14-2.59,0-1.62-.3-2.82-.88-3.56-.56-.71-1.29-1.06-2.23-1.06-.75,0-1.57,.33-2.43,1-.92,.7-1.84,1.68-2.76,2.92-.93,1.25-1.83,2.75-2.69,4.46-.86,1.71-1.65,3.6-2.34,5.59-.69,2-1.28,4.11-1.73,6.3-.46,2.18-.75,4.38-.86,6.56l-.02,.42-5.1,.63-.45-.02-.51-.03,.04-.51c.12-1.42,.23-2.96,.34-4.63,.1-1.67,.2-3.37,.29-5.1,.09-1.72,.17-3.43,.24-5.13,.07-1.7,.13-3.28,.18-4.75,.05-1.47,.09-2.79,.11-3.95,.02-1.16,.03-2.08,.03-2.75,0-.57-.04-1.06-.12-1.44-.07-.34-.18-.61-.33-.8-.13-.17-.29-.29-.48-.36-.23-.08-.51-.13-.84-.13-.5,0-1.12,.07-1.83,.21-.74,.15-1.59,.35-2.53,.6l-.51,.14-.53-2.56,.41-.15c1.07-.38,2.09-.72,3.08-1.03,.99-.31,1.89-.58,2.72-.8,.82-.22,1.57-.4,2.21-.52,.67-.13,1.18-.19,1.57-.19,1.01,0,1.81,.31,2.39,.93,.58,.62,.86,1.6,.86,3,0,.15-.01,.51-.05,1.07-.03,.55-.07,1.24-.12,2.08-.05,.84-.12,1.8-.19,2.88-.08,1.09-.16,2.24-.26,3.47-.09,1.19-.2,2.42-.31,3.69,.78-2.25,1.6-4.25,2.45-5.98,1.31-2.67,2.67-4.88,4.03-6.56,1.38-1.69,2.78-2.94,4.16-3.7,1.4-.77,2.76-1.16,4.05-1.16,.9,0,1.78,.17,2.61,.51,.85,.34,1.61,.89,2.26,1.64,.65,.74,1.17,1.69,1.55,2.83,.37,1.13,.56,2.51,.56,4.09,0,.46-.03,1.07-.08,1.84-.05,.76-.12,1.6-.19,2.53-.08,.93-.16,1.91-.26,2.96-.1,1.04-.18,2.05-.26,3.05-.07,1-.14,1.95-.19,2.85-.05,.89-.08,1.67-.08,2.34,0,1.14,.05,2.08,.14,2.78,.09,.67,.23,1.2,.43,1.57,.17,.32,.38,.53,.65,.65,.31,.13,.71,.2,1.17,.2,.73,0,1.5-.1,2.3-.31,.81-.21,1.63-.5,2.45-.88l.49-.22,.73,2.01-.28,.22c-.56,.45-1.27,.91-2.12,1.37-.83,.46-1.72,.88-2.64,1.26-.92,.38-1.85,.69-2.77,.93-.93,.24-1.77,.36-2.5,.36Z"/><path class="e" d="M125.87,30.96c.84,0,1.64,.16,2.42,.47,.78,.31,1.47,.81,2.07,1.5,.61,.69,1.09,1.57,1.45,2.66,.36,1.08,.54,2.4,.54,3.94,0,.45-.03,1.05-.08,1.81-.05,.75-.12,1.6-.19,2.52-.07,.93-.16,1.91-.26,2.95s-.18,2.06-.26,3.06c-.08,1-.14,1.96-.19,2.86-.05,.91-.08,1.69-.08,2.37,0,1.17,.05,2.12,.15,2.85s.26,1.31,.48,1.74,.52,.72,.9,.87c.37,.16,.83,.24,1.37,.24,.78,0,1.58-.11,2.42-.33,.84-.22,1.68-.52,2.53-.91l.43,1.17c-.54,.43-1.22,.87-2.04,1.32-.82,.45-1.69,.86-2.59,1.23-.9,.37-1.81,.68-2.7,.91-.9,.23-1.69,.35-2.38,.35-.81,0-1.44-.22-1.91-.65-.46-.43-.81-1.02-1.04-1.77-.23-.75-.38-1.62-.45-2.62-.07-1-.1-2.08-.1-3.23,0-1.41,.05-2.85,.15-4.34,.1-1.49,.21-2.9,.33-4.25,.12-1.35,.23-2.57,.32-3.67,.1-1.1,.15-1.98,.15-2.64,0-1.75-.33-3.04-.99-3.87-.66-.83-1.53-1.24-2.62-1.24-.87,0-1.78,.37-2.74,1.1-.96,.73-1.91,1.74-2.86,3.02-.95,1.28-1.86,2.79-2.74,4.53-.87,1.74-1.66,3.63-2.37,5.65-.7,2.03-1.29,4.14-1.75,6.36-.46,2.21-.76,4.43-.88,6.64l-4.69,.58-.36-.02c.12-1.42,.23-2.97,.34-4.64,.1-1.67,.2-3.38,.29-5.1,.09-1.73,.17-3.44,.24-5.14,.07-1.7,.13-3.28,.18-4.75,.05-1.47,.09-2.79,.11-3.96s.03-2.09,.03-2.76c0-.61-.04-1.13-.13-1.55-.09-.42-.23-.75-.42-1-.19-.25-.42-.42-.71-.53-.28-.1-.62-.16-1.01-.16-.54,0-1.18,.08-1.93,.22-.75,.15-1.6,.35-2.56,.61l-.34-1.61c1.06-.37,2.08-.71,3.06-1.02,.98-.31,1.88-.57,2.7-.8,.82-.22,1.55-.4,2.18-.52,.63-.12,1.12-.18,1.48-.18,.87,0,1.54,.26,2.03,.77,.49,.52,.73,1.4,.73,2.66,0,.15-.01,.5-.04,1.04-.03,.55-.07,1.24-.12,2.07-.05,.84-.12,1.8-.19,2.88-.08,1.08-.16,2.24-.26,3.46-.1,1.23-.21,2.49-.32,3.8-.12,1.31-.25,2.61-.38,3.91l.13,.02c1.14-3.86,2.35-7.11,3.66-9.77,1.3-2.65,2.62-4.81,3.97-6.46,1.35-1.65,2.68-2.84,4.01-3.58,1.33-.73,2.6-1.1,3.81-1.1m0-1c-1.38,0-2.82,.41-4.29,1.22-1.44,.79-2.89,2.08-4.31,3.82-1.39,1.71-2.76,3.94-4.09,6.65-.41,.83-.81,1.72-1.2,2.67v-.12c.11-1.23,.19-2.39,.27-3.47,.07-1.09,.14-2.05,.19-2.89,.05-.84,.09-1.53,.12-2.08,.03-.57,.05-.94,.05-1.1,0-1.53-.33-2.63-1-3.34-.68-.72-1.61-1.09-2.76-1.09-.42,0-.97,.06-1.67,.2-.66,.13-1.42,.31-2.25,.53-.82,.22-1.74,.5-2.74,.81-.98,.31-2.02,.65-3.09,1.03l-.83,.29,.18,.86,.34,1.61,.22,1.03,1.02-.27c.93-.25,1.77-.45,2.5-.59,.68-.14,1.26-.2,1.73-.2,.27,0,.49,.03,.66,.1,.1,.04,.18,.1,.25,.19,.07,.09,.16,.26,.23,.6,.07,.35,.11,.8,.11,1.34,0,.67-.01,1.58-.03,2.74-.02,1.16-.06,2.48-.11,3.94-.05,1.47-.11,3.05-.18,4.75-.07,1.69-.15,3.4-.23,5.12-.09,1.72-.19,3.42-.29,5.09-.11,1.68-.22,3.23-.33,4.62l-.09,1.02,1.02,.06,.36,.02h.19l4.69-.59,.83-.1,.05-.84c.12-2.15,.4-4.33,.86-6.49,.45-2.16,1.03-4.26,1.71-6.23,.69-1.97,1.46-3.84,2.31-5.53,.85-1.68,1.74-3.16,2.64-4.38,.89-1.2,1.79-2.15,2.66-2.82,.77-.59,1.49-.89,2.13-.89,.79,0,1.37,.28,1.84,.87,.51,.65,.77,1.74,.77,3.25,0,.62-.05,1.48-.14,2.55l-.18,1.98-.15,1.68c-.12,1.35-.23,2.79-.33,4.27-.1,1.5-.15,2.98-.15,4.4,0,1.17,.03,2.28,.1,3.3,.07,1.08,.24,2.04,.49,2.85,.28,.91,.73,1.66,1.32,2.21,.65,.61,1.52,.92,2.59,.92,.77,0,1.66-.13,2.63-.38,.94-.24,1.89-.56,2.83-.95,.93-.38,1.84-.82,2.69-1.28,.87-.48,1.61-.95,2.19-1.42l.56-.45-.25-.67-.43-1.17-.37-1.01-.98,.45c-.8,.36-1.59,.65-2.37,.85-.75,.19-1.48,.29-2.17,.29-.4,0-.73-.05-.98-.16-.06-.02-.23-.1-.4-.42-.12-.22-.27-.64-.38-1.4-.09-.68-.14-1.6-.14-2.72,0-.66,.03-1.43,.08-2.31,.05-.9,.11-1.85,.19-2.84,.07-1,.16-2.01,.26-3.04,.1-1.04,.18-2.03,.26-2.96,.08-.93,.14-1.77,.19-2.53,.05-.77,.08-1.4,.08-1.88,0-1.64-.2-3.07-.59-4.25-.4-1.21-.95-2.22-1.64-3-.71-.8-1.53-1.4-2.45-1.77-.89-.36-1.83-.54-2.8-.54h0Z"/></g><g><path class="c" d="M149.33,65.26c-1.44,0-2.71-.37-3.76-1.11-1.03-.72-1.88-1.68-2.54-2.86-.64-1.15-1.12-2.49-1.43-3.98-.3-1.47-.46-3-.46-4.55,0-1.87,.21-3.73,.62-5.55,.41-1.81,1.01-3.56,1.77-5.18,.77-1.63,1.7-3.16,2.78-4.54,1.08-1.4,2.31-2.62,3.66-3.63,1.35-1.01,2.83-1.82,4.4-2.39,1.58-.58,3.26-.87,5-.87,1.22,0,2.45,.16,3.66,.46,.97,.25,1.95,.63,2.91,1.13,.07-2.28,.16-4.59,.26-6.93,.11-2.64,.25-5.22,.39-7.67,.15-2.44,.31-4.82,.49-7.05,.18-2.22,.38-4.22,.58-5.94,.06-.45,.21-.84,.45-1.17,.24-.32,.54-.58,.91-.77,.34-.18,.72-.31,1.14-.4,.4-.08,.82-.12,1.24-.12,.97,0,1.99,.26,3.04,.77l.33,.16-.05,.36c-.53,3.77-1.05,7.69-1.55,11.65-.49,3.96-.93,7.95-1.3,11.87-.37,3.92-.67,7.84-.9,11.64-.22,3.79-.34,7.49-.34,10.98,0,1.68,.02,3.13,.06,4.33,.04,1.2,.1,2.22,.18,3.04,.08,.8,.19,1.45,.32,1.91,.12,.43,.27,.75,.45,.97,.15,.19,.32,.31,.5,.36,.24,.07,.53,.1,.87,.1,.67,0,1.41-.1,2.19-.31,.8-.21,1.62-.5,2.44-.88l.49-.22,.73,2.01-.28,.22c-.56,.45-1.26,.91-2.1,1.37-.83,.46-1.71,.88-2.62,1.26-.91,.38-1.82,.69-2.7,.93-.9,.24-1.69,.37-2.36,.37-.51,0-.97-.06-1.36-.18-.43-.13-.8-.36-1.1-.69-.29-.31-.53-.71-.73-1.2-.19-.47-.33-1.06-.44-1.77-.14-.92-.25-1.99-.33-3.18-.08-1.2-.12-2.53-.12-3.94,0-1.5,.06-3.05,.17-4.6,.04-.51,.08-1.02,.13-1.54-.82,1.92-1.7,3.72-2.61,5.37-1.36,2.47-2.79,4.61-4.23,6.36-1.46,1.77-2.96,3.15-4.44,4.1-1.53,.98-3.02,1.48-4.44,1.48Zm10.85-31.24c-1.38,0-2.67,.22-3.82,.66-1.16,.44-2.22,1.06-3.14,1.83-.93,.78-1.76,1.71-2.46,2.76-.71,1.06-1.3,2.22-1.76,3.44-.47,1.23-.82,2.52-1.06,3.85-.24,1.33-.36,2.66-.36,3.97,0,.47,.02,1.01,.07,1.61,.04,.6,.13,1.23,.25,1.87,.12,.64,.29,1.28,.49,1.89,.2,.59,.44,1.13,.73,1.61,.28,.45,.61,.81,.99,1.08,.36,.25,.77,.37,1.27,.37,.96,0,1.97-.38,3-1.12,1.08-.78,2.15-1.83,3.19-3.11,1.05-1.3,2.05-2.82,2.98-4.5,.94-1.69,1.78-3.46,2.51-5.25,.73-1.79,1.33-3.58,1.8-5.32,.42-1.59,.7-3.07,.82-4.4-1.84-.83-3.68-1.24-5.48-1.24Z"/><path class="e" d="M171.42,2.64c.9,0,1.84,.24,2.83,.72-.54,3.8-1.05,7.68-1.55,11.66-.49,3.98-.93,7.94-1.3,11.89-.37,3.95-.67,7.83-.9,11.66-.22,3.83-.34,7.5-.34,11.01,0,1.69,.02,3.14,.06,4.35,.04,1.21,.1,2.24,.18,3.07,.08,.84,.19,1.5,.34,2,.14,.49,.32,.88,.54,1.14,.22,.27,.47,.44,.75,.53,.28,.08,.62,.12,1.01,.12,.72,0,1.49-.11,2.32-.33,.83-.22,1.67-.52,2.52-.91l.43,1.17c-.54,.43-1.21,.87-2.03,1.32-.82,.45-1.67,.86-2.57,1.23-.9,.37-1.78,.68-2.63,.91-.86,.23-1.6,.35-2.23,.35-.46,0-.87-.05-1.21-.16-.34-.11-.64-.29-.89-.55s-.46-.61-.63-1.04c-.17-.43-.31-.99-.42-1.66-.13-.9-.24-1.94-.33-3.14-.08-1.2-.12-2.5-.12-3.9,0-1.5,.06-3.02,.17-4.56,.11-1.55,.29-3.09,.55-4.63l-.2-.04c-1.15,3.04-2.4,5.78-3.76,8.23-1.35,2.45-2.75,4.54-4.18,6.28s-2.88,3.07-4.33,4c-1.45,.93-2.84,1.4-4.17,1.4s-2.5-.34-3.48-1.02c-.97-.68-1.77-1.58-2.39-2.69-.62-1.11-1.08-2.39-1.38-3.83-.3-1.44-.45-2.93-.45-4.45,0-1.84,.2-3.65,.61-5.44,.4-1.79,.98-3.48,1.74-5.08,.75-1.6,1.66-3.08,2.73-4.45,1.06-1.37,2.25-2.55,3.57-3.53,1.32-.99,2.74-1.76,4.27-2.32,1.53-.56,3.14-.84,4.83-.84,1.18,0,2.36,.15,3.53,.45,1.17,.3,2.34,.79,3.51,1.48,.07-2.54,.17-5.12,.28-7.75,.11-2.62,.24-5.18,.39-7.66,.15-2.48,.31-4.83,.49-7.04,.18-2.21,.37-4.19,.58-5.92,.04-.36,.16-.67,.36-.93,.19-.26,.44-.47,.74-.63,.3-.16,.64-.27,1.01-.35,.37-.07,.75-.11,1.14-.11m-20.05,56.83c1.08,0,2.18-.4,3.3-1.21,1.12-.81,2.22-1.88,3.29-3.21,1.07-1.33,2.08-2.86,3.03-4.58,.95-1.72,1.79-3.49,2.53-5.3,.74-1.82,1.35-3.61,1.82-5.38,.47-1.77,.76-3.38,.86-4.83-2.02-.96-4.02-1.44-6.01-1.44-1.45,0-2.78,.23-4,.7-1.22,.46-2.31,1.1-3.29,1.92-.97,.81-1.82,1.77-2.56,2.87-.73,1.1-1.34,2.28-1.82,3.54-.48,1.26-.84,2.58-1.09,3.94-.25,1.36-.37,2.71-.37,4.06,0,.48,.02,1.03,.07,1.65,.04,.62,.13,1.26,.26,1.93s.3,1.32,.5,1.95c.21,.64,.47,1.21,.78,1.71,.31,.51,.69,.92,1.13,1.22s.96,.46,1.56,.46M171.42,1.64c-.45,0-.9,.04-1.34,.13-.47,.09-.9,.24-1.28,.44-.43,.23-.79,.54-1.08,.92-.3,.4-.48,.87-.55,1.4-.21,1.73-.41,3.74-.59,5.96-.18,2.24-.35,4.61-.49,7.06-.15,2.45-.28,5.03-.39,7.67-.09,2.06-.17,4.13-.23,6.17-.77-.35-1.54-.63-2.31-.82-1.25-.32-2.52-.48-3.78-.48-1.8,0-3.54,.3-5.18,.9-1.62,.59-3.14,1.42-4.53,2.46-1.38,1.04-2.64,2.29-3.76,3.72-1.1,1.42-2.06,2.98-2.84,4.64-.78,1.66-1.39,3.44-1.81,5.29-.42,1.85-.63,3.76-.63,5.66,0,1.59,.16,3.15,.47,4.65,.32,1.54,.82,2.92,1.48,4.12,.69,1.24,1.6,2.26,2.69,3.02,1.14,.8,2.5,1.2,4.05,1.2s3.1-.53,4.71-1.56c1.53-.99,3.06-2.4,4.56-4.21,1.47-1.77,2.91-3.94,4.29-6.43,.5-.9,.98-1.84,1.46-2.83-.06,1.13-.09,2.26-.09,3.36,0,1.42,.04,2.76,.13,3.97,.08,1.21,.2,2.29,.33,3.22,.12,.76,.27,1.37,.47,1.88,.22,.55,.5,1.01,.83,1.36,.37,.39,.81,.66,1.32,.82,.44,.13,.94,.2,1.5,.2,.72,0,1.55-.13,2.49-.38,.9-.24,1.83-.56,2.76-.95,.92-.38,1.82-.82,2.67-1.28,.86-.48,1.6-.95,2.17-1.42l.56-.45-.25-.67-.43-1.17-.37-1.01-.98,.45c-.8,.36-1.59,.65-2.36,.85-.74,.19-1.44,.29-2.07,.29-.29,0-.54-.03-.73-.08-.03,0-.13-.04-.25-.19-.09-.11-.23-.34-.36-.79-.13-.43-.23-1.04-.3-1.82-.08-.81-.14-1.82-.18-3.01-.04-1.19-.06-2.65-.06-4.32,0-3.48,.11-7.17,.33-10.95,.22-3.8,.52-7.71,.89-11.63,.37-3.91,.81-7.9,1.3-11.86,.49-3.96,1.01-7.88,1.55-11.64l.1-.72-.66-.32c-1.12-.54-2.22-.82-3.26-.82h0Zm-20.05,56.83c-.39,0-.72-.09-.99-.28-.33-.23-.61-.53-.85-.93-.27-.44-.5-.95-.69-1.5-.2-.59-.35-1.21-.47-1.83-.12-.62-.2-1.23-.24-1.81-.04-.59-.06-1.12-.06-1.58,0-1.28,.12-2.58,.35-3.88,.23-1.3,.58-2.56,1.04-3.76,.45-1.19,1.03-2.31,1.71-3.34,.68-1.01,1.47-1.91,2.37-2.66,.88-.74,1.89-1.33,3-1.75,1.1-.42,2.33-.63,3.65-.63,1.62,0,3.28,.35,4.95,1.06-.13,1.2-.39,2.53-.77,3.95-.46,1.72-1.06,3.49-1.78,5.26-.72,1.77-1.56,3.52-2.48,5.2-.92,1.66-1.9,3.15-2.93,4.43-1.01,1.25-2.05,2.27-3.09,3.02-.94,.68-1.86,1.02-2.71,1.02h0Z"/></g><g><path class="c" d="M192.16,65.26c-1.99,0-3.78-.43-5.32-1.27-1.53-.84-2.83-1.96-3.86-3.33-1.02-1.36-1.81-2.94-2.34-4.67-.53-1.73-.8-3.52-.8-5.33,0-1.54,.16-3.12,.48-4.7,.32-1.58,.8-3.13,1.42-4.61,.62-1.49,1.41-2.9,2.33-4.2,.93-1.31,2.01-2.47,3.22-3.45,1.22-.99,2.59-1.77,4.08-2.34,1.5-.57,3.15-.86,4.91-.86,1.99,0,3.78,.43,5.32,1.27,1.53,.84,2.83,1.96,3.87,3.33,1.03,1.37,1.83,2.94,2.36,4.68,.53,1.73,.8,3.52,.8,5.33,0,1.54-.16,3.12-.48,4.7-.32,1.58-.8,3.13-1.43,4.62-.63,1.48-1.42,2.9-2.34,4.2-.93,1.31-2.01,2.47-3.22,3.45-1.22,.99-2.59,1.77-4.08,2.34-1.5,.57-3.15,.86-4.91,.86Zm1.68-30.61c-1,0-1.89,.21-2.64,.63-.77,.43-1.44,1.01-2,1.73-.57,.74-1.06,1.59-1.43,2.55-.39,.97-.7,1.99-.93,3.02-.23,1.04-.4,2.08-.49,3.11-.1,1.03-.14,1.98-.14,2.84,0,.99,.08,2,.23,3.02,.15,1.01,.39,2,.71,2.94,.32,.93,.71,1.82,1.18,2.64,.46,.8,1.01,1.5,1.64,2.09,.62,.58,1.33,1.05,2.1,1.38,.76,.33,1.62,.5,2.55,.5,1,0,1.89-.22,2.63-.64,.77-.44,1.44-1.02,2-1.75,.57-.74,1.06-1.59,1.43-2.54,.38-.97,.7-2,.93-3.03,.23-1.04,.4-2.09,.49-3.11,.1-1.03,.14-1.99,.14-2.85,0-1-.08-2.02-.23-3.03-.15-1-.39-1.99-.71-2.92-.32-.93-.71-1.81-1.18-2.62-.46-.8-1.01-1.5-1.63-2.08-.62-.58-1.33-1.04-2.1-1.38-.76-.33-1.62-.5-2.55-.5Z"/><path class="e" d="M196.29,30.99c1.91,0,3.61,.4,5.08,1.21,1.47,.81,2.71,1.87,3.71,3.2,1,1.32,1.76,2.83,2.28,4.52,.52,1.69,.77,3.42,.77,5.18,0,1.51-.16,3.04-.47,4.6-.31,1.55-.78,3.06-1.4,4.52-.62,1.46-1.38,2.83-2.29,4.1-.9,1.28-1.95,2.4-3.13,3.35-1.18,.96-2.5,1.71-3.95,2.26-1.45,.55-3.03,.83-4.73,.83-1.91,0-3.61-.4-5.08-1.21-1.47-.81-2.71-1.87-3.7-3.2-.99-1.32-1.75-2.83-2.27-4.52-.52-1.69-.77-3.42-.77-5.18,0-1.51,.16-3.04,.47-4.6,.31-1.55,.78-3.06,1.39-4.52,.61-1.46,1.37-2.83,2.28-4.1,.9-1.28,1.95-2.4,3.13-3.35,1.18-.96,2.5-1.71,3.95-2.27,1.45-.55,3.03-.83,4.73-.83m-1.68,30.61c1.09,0,2.05-.24,2.88-.71,.83-.47,1.55-1.09,2.15-1.87,.61-.78,1.11-1.67,1.5-2.67s.71-2.04,.95-3.11c.24-1.07,.41-2.13,.5-3.17,.1-1.05,.15-2.01,.15-2.89,0-1.03-.08-2.07-.24-3.11-.16-1.04-.4-2.04-.73-3-.33-.96-.74-1.87-1.22-2.71-.49-.84-1.06-1.58-1.73-2.2-.67-.62-1.41-1.11-2.24-1.47-.83-.36-1.75-.54-2.75-.54-1.09,0-2.05,.23-2.88,.7-.83,.46-1.55,1.08-2.15,1.86-.61,.78-1.11,1.67-1.5,2.67-.4,1-.71,2.03-.95,3.09-.24,1.06-.41,2.12-.5,3.17-.1,1.05-.15,2.01-.15,2.88,0,1.02,.08,2.05,.24,3.09,.16,1.05,.4,2.06,.73,3.03,.33,.97,.74,1.88,1.22,2.72,.49,.84,1.06,1.58,1.73,2.21,.67,.63,1.41,1.12,2.24,1.48s1.75,.54,2.75,.54m1.68-31.61c-1.82,0-3.53,.3-5.09,.9-1.54,.59-2.96,1.4-4.22,2.42-1.25,1.01-2.36,2.2-3.32,3.55-.94,1.33-1.74,2.77-2.38,4.29-.64,1.51-1.12,3.09-1.45,4.71-.33,1.61-.49,3.22-.49,4.79,0,1.86,.27,3.7,.82,5.47,.55,1.79,1.36,3.42,2.42,4.83,1.07,1.43,2.43,2.6,4.02,3.47,1.61,.89,3.48,1.33,5.56,1.33,1.82,0,3.53-.3,5.09-.9,1.54-.59,2.96-1.4,4.22-2.42,1.24-1.01,2.36-2.2,3.32-3.55,.94-1.33,1.75-2.77,2.39-4.29,.64-1.51,1.14-3.1,1.46-4.71,.33-1.61,.49-3.23,.49-4.8,0-1.85-.28-3.69-.82-5.47-.55-1.79-1.37-3.42-2.43-4.83-1.08-1.43-2.44-2.6-4.03-3.47-1.61-.89-3.48-1.33-5.56-1.33h0Zm-1.68,30.61c-.86,0-1.65-.15-2.35-.46-.72-.31-1.37-.74-1.95-1.29-.59-.56-1.11-1.22-1.55-1.98-.45-.79-.84-1.64-1.14-2.55-.31-.91-.54-1.87-.69-2.86-.15-.99-.22-1.99-.22-2.95,0-.84,.05-1.77,.14-2.79,.09-1,.26-2.03,.48-3.05,.23-1.01,.53-2,.91-2.95,.36-.91,.82-1.72,1.36-2.42,.52-.67,1.14-1.21,1.85-1.6,.68-.38,1.48-.57,2.39-.57,.86,0,1.65,.15,2.35,.46,.72,.31,1.38,.74,1.96,1.28,.59,.55,1.11,1.21,1.54,1.96,.45,.79,.84,1.64,1.14,2.54,.31,.9,.54,1.86,.69,2.83,.15,.99,.22,1.98,.22,2.96,0,.84-.05,1.79-.14,2.8-.09,1-.26,2.03-.48,3.05-.23,1.01-.53,2.01-.91,2.96-.36,.91-.82,1.72-1.36,2.42-.52,.67-1.15,1.22-1.86,1.62-.67,.38-1.48,.58-2.39,.58h0Z"/></g><g><path class="c" d="M240.73,65.03c-.93,0-1.69-.26-2.25-.79-.52-.49-.92-1.16-1.18-1.99-.24-.78-.4-1.7-.47-2.74-.07-1.01-.1-2.11-.1-3.26,0-1.41,.05-2.89,.15-4.37,.1-1.49,.21-2.91,.33-4.26l.32-3.67c.1-1.08,.14-1.95,.14-2.59,0-1.62-.3-2.82-.88-3.56-.56-.71-1.29-1.06-2.23-1.06-.75,0-1.57,.33-2.43,1-.92,.7-1.84,1.68-2.76,2.92-.93,1.25-1.83,2.75-2.69,4.46-.86,1.71-1.65,3.6-2.34,5.59-.69,2-1.28,4.11-1.73,6.3-.46,2.18-.75,4.38-.86,6.56l-.02,.42-5.1,.63-.45-.02-.51-.03,.04-.51c.12-1.42,.23-2.96,.34-4.63,.1-1.67,.2-3.37,.29-5.1,.09-1.72,.17-3.43,.24-5.13,.07-1.7,.13-3.28,.18-4.75,.05-1.47,.09-2.79,.11-3.95,.02-1.16,.03-2.08,.03-2.75,0-.57-.04-1.06-.12-1.44-.07-.34-.18-.61-.33-.8-.13-.17-.29-.29-.48-.36-.23-.08-.51-.13-.84-.13-.5,0-1.12,.07-1.83,.21-.74,.15-1.59,.35-2.53,.6l-.51,.14-.53-2.56,.41-.15c1.07-.38,2.09-.72,3.08-1.03,.99-.31,1.89-.58,2.72-.8,.82-.22,1.57-.4,2.21-.52,.67-.13,1.18-.19,1.57-.19,1.01,0,1.81,.31,2.39,.93,.58,.62,.86,1.6,.86,3,0,.15-.01,.51-.05,1.07-.03,.55-.07,1.24-.12,2.08-.05,.84-.12,1.8-.19,2.88-.08,1.09-.16,2.24-.26,3.47-.09,1.19-.2,2.42-.31,3.69,.78-2.25,1.6-4.25,2.45-5.98,1.31-2.67,2.67-4.88,4.03-6.56,1.38-1.69,2.78-2.94,4.16-3.7,1.4-.77,2.76-1.16,4.05-1.16,.9,0,1.78,.17,2.61,.51,.85,.34,1.61,.89,2.26,1.64,.65,.74,1.17,1.69,1.55,2.83,.37,1.13,.56,2.51,.56,4.09,0,.46-.03,1.07-.08,1.84-.05,.76-.12,1.6-.19,2.53-.08,.93-.16,1.91-.26,2.96-.1,1.04-.18,2.05-.26,3.05-.07,1-.14,1.95-.19,2.85-.05,.89-.08,1.67-.08,2.34,0,1.14,.05,2.08,.14,2.78,.09,.67,.23,1.2,.43,1.57,.17,.32,.38,.53,.65,.65,.31,.13,.71,.2,1.17,.2,.73,0,1.5-.1,2.3-.31,.81-.21,1.63-.5,2.45-.88l.49-.22,.73,2.01-.28,.22c-.56,.45-1.27,.91-2.12,1.37-.83,.46-1.72,.88-2.64,1.26-.92,.38-1.85,.69-2.77,.93-.93,.24-1.77,.36-2.5,.36Z"/><path class="e" d="M236.74,30.96c.84,0,1.64,.16,2.42,.47,.78,.31,1.47,.81,2.07,1.5,.61,.69,1.09,1.57,1.45,2.66,.36,1.08,.54,2.4,.54,3.94,0,.45-.03,1.05-.08,1.81-.05,.75-.12,1.6-.19,2.52-.07,.93-.16,1.91-.26,2.95s-.18,2.06-.26,3.06c-.08,1-.14,1.96-.19,2.86-.05,.91-.08,1.69-.08,2.37,0,1.17,.05,2.12,.15,2.85s.26,1.31,.48,1.74,.52,.72,.9,.87c.37,.16,.83,.24,1.37,.24,.78,0,1.58-.11,2.42-.33,.84-.22,1.68-.52,2.53-.91l.43,1.17c-.54,.43-1.22,.87-2.04,1.32-.82,.45-1.69,.86-2.59,1.23-.9,.37-1.81,.68-2.7,.91-.9,.23-1.69,.35-2.38,.35-.81,0-1.44-.22-1.91-.65-.46-.43-.81-1.02-1.04-1.77-.23-.75-.38-1.62-.45-2.62-.07-1-.1-2.08-.1-3.23,0-1.41,.05-2.85,.15-4.34,.1-1.49,.21-2.9,.33-4.25,.12-1.35,.23-2.57,.32-3.67,.1-1.1,.15-1.98,.15-2.64,0-1.75-.33-3.04-.99-3.87-.66-.83-1.53-1.24-2.62-1.24-.87,0-1.78,.37-2.74,1.1-.96,.73-1.91,1.74-2.86,3.02-.95,1.28-1.86,2.79-2.74,4.53-.87,1.74-1.66,3.63-2.37,5.65-.7,2.03-1.29,4.14-1.75,6.36-.46,2.21-.76,4.43-.88,6.64l-4.69,.58-.36-.02c.12-1.42,.23-2.97,.34-4.64,.1-1.67,.2-3.38,.29-5.1,.09-1.73,.17-3.44,.24-5.14,.07-1.7,.13-3.28,.18-4.75,.05-1.47,.09-2.79,.11-3.96s.03-2.09,.03-2.76c0-.61-.04-1.13-.13-1.55-.09-.42-.23-.75-.42-1-.19-.25-.42-.42-.71-.53-.28-.1-.62-.16-1.01-.16-.54,0-1.18,.08-1.93,.22-.75,.15-1.6,.35-2.56,.61l-.34-1.61c1.06-.37,2.08-.71,3.06-1.02,.98-.31,1.88-.57,2.7-.8,.82-.22,1.55-.4,2.18-.52,.63-.12,1.12-.18,1.48-.18,.87,0,1.54,.26,2.03,.77,.49,.52,.73,1.4,.73,2.66,0,.15-.01,.5-.04,1.04-.03,.55-.07,1.24-.12,2.07-.05,.84-.12,1.8-.19,2.88-.08,1.08-.16,2.24-.26,3.46-.1,1.23-.21,2.49-.32,3.8-.12,1.31-.25,2.61-.38,3.91l.13,.02c1.14-3.86,2.35-7.11,3.66-9.77,1.3-2.65,2.62-4.81,3.97-6.46,1.35-1.65,2.68-2.84,4.01-3.58,1.33-.73,2.6-1.1,3.81-1.1m0-1c-1.38,0-2.82,.41-4.29,1.22-1.44,.79-2.89,2.08-4.31,3.82-1.39,1.71-2.76,3.94-4.09,6.65-.41,.83-.81,1.72-1.2,2.67v-.12c.11-1.23,.19-2.39,.27-3.47,.07-1.09,.14-2.05,.19-2.89,.05-.84,.09-1.53,.12-2.08,.03-.57,.05-.94,.05-1.1,0-1.53-.33-2.63-1-3.34-.68-.72-1.61-1.09-2.76-1.09-.42,0-.97,.06-1.67,.2-.66,.13-1.42,.31-2.25,.53-.82,.22-1.74,.5-2.74,.81-.98,.31-2.02,.65-3.09,1.03l-.83,.29,.18,.86,.34,1.61,.22,1.03,1.02-.27c.93-.25,1.77-.45,2.5-.59,.68-.14,1.26-.2,1.73-.2,.27,0,.49,.03,.66,.1,.1,.04,.18,.1,.25,.19,.07,.09,.16,.26,.23,.6,.07,.35,.11,.8,.11,1.34,0,.67-.01,1.58-.03,2.74-.02,1.16-.06,2.48-.11,3.94-.05,1.47-.11,3.05-.18,4.75-.07,1.69-.15,3.4-.23,5.12-.09,1.72-.19,3.42-.29,5.09-.11,1.68-.22,3.23-.33,4.62l-.09,1.02,1.02,.06,.36,.02h.19l4.69-.59,.83-.1,.05-.84c.12-2.15,.4-4.33,.86-6.49,.45-2.16,1.03-4.26,1.71-6.23,.69-1.97,1.46-3.84,2.31-5.53,.85-1.68,1.74-3.16,2.64-4.38,.89-1.2,1.79-2.15,2.66-2.82,.77-.59,1.49-.89,2.13-.89,.79,0,1.37,.28,1.84,.87,.51,.65,.77,1.74,.77,3.25,0,.62-.05,1.48-.14,2.55l-.18,1.98-.15,1.68c-.12,1.35-.23,2.79-.33,4.27-.1,1.5-.15,2.98-.15,4.4,0,1.17,.03,2.28,.1,3.3,.07,1.08,.24,2.04,.49,2.85,.28,.91,.73,1.66,1.32,2.21,.65,.61,1.52,.92,2.59,.92,.77,0,1.66-.13,2.63-.38,.94-.24,1.89-.56,2.83-.95,.93-.38,1.84-.82,2.69-1.28,.87-.48,1.61-.95,2.19-1.42l.56-.45-.25-.67-.43-1.17-.37-1.01-.98,.45c-.8,.36-1.59,.65-2.37,.85-.75,.19-1.48,.29-2.17,.29-.4,0-.73-.05-.98-.16-.06-.02-.23-.1-.4-.42-.12-.22-.27-.64-.38-1.4-.09-.68-.14-1.6-.14-2.72,0-.66,.03-1.43,.08-2.31,.05-.9,.11-1.85,.19-2.84,.07-1,.16-2.01,.26-3.04,.1-1.04,.18-2.03,.26-2.96,.08-.93,.14-1.77,.19-2.53,.05-.77,.08-1.4,.08-1.88,0-1.64-.2-3.07-.59-4.25-.4-1.21-.95-2.22-1.64-3-.71-.8-1.53-1.4-2.45-1.77-.89-.36-1.83-.54-2.8-.54h0Z"/></g><g><path class="c" d="M249.1,28.63l.4-.32c.77-.61,1.46-1.27,2.06-1.96s1.12-1.43,1.53-2.17c.41-.74,.73-1.49,.96-2.24,.22-.74,.33-1.46,.33-2.16,0-.59-.07-1.07-.22-1.43-.15-.36-.34-.68-.57-.93-.25-.27-.51-.52-.79-.74-.31-.24-.62-.51-.9-.81-.31-.32-.56-.69-.76-1.12-.2-.44-.3-.99-.3-1.67,0-.5,.1-.99,.3-1.46,.2-.47,.48-.89,.84-1.25,.36-.36,.78-.65,1.27-.87,.5-.22,1.05-.33,1.64-.33,.81,0,1.54,.17,2.16,.49,.62,.33,1.15,.79,1.56,1.37,.41,.57,.72,1.25,.92,2.03,.2,.75,.3,1.58,.3,2.46,0,1.18-.18,2.43-.52,3.74-.35,1.3-.88,2.62-1.58,3.92-.7,1.3-1.61,2.58-2.69,3.8-1.08,1.23-2.38,2.37-3.86,3.39l-.37,.26-1.7-2.02Z"/><path class="e" d="M254.88,9.68c.73,0,1.38,.15,1.93,.44,.55,.29,1.02,.7,1.39,1.22,.37,.52,.65,1.14,.84,1.86,.19,.72,.28,1.5,.28,2.33,0,1.14-.17,2.34-.5,3.61-.34,1.27-.85,2.54-1.54,3.81-.69,1.27-1.56,2.51-2.62,3.71-1.06,1.2-2.32,2.31-3.77,3.31l-1.08-1.28c.79-.63,1.5-1.3,2.13-2.03,.63-.73,1.16-1.48,1.59-2.25,.43-.78,.77-1.56,1-2.34,.23-.78,.35-1.55,.35-2.3,0-.66-.09-1.2-.26-1.61-.17-.42-.39-.78-.66-1.08-.27-.3-.55-.56-.85-.8-.3-.23-.58-.49-.85-.76-.27-.28-.49-.6-.66-.98-.17-.37-.26-.86-.26-1.46,0-.43,.09-.86,.26-1.27,.17-.41,.41-.77,.73-1.09,.31-.31,.69-.57,1.12-.76,.43-.19,.91-.29,1.44-.29m0-1c-.66,0-1.28,.13-1.84,.38-.54,.24-1.02,.57-1.42,.97-.41,.41-.72,.88-.94,1.41-.22,.53-.34,1.09-.34,1.65,0,.75,.11,1.37,.35,1.88,.22,.47,.5,.9,.85,1.25,.3,.31,.63,.6,.96,.86,.25,.19,.49,.42,.72,.67,.19,.21,.35,.48,.48,.79,.12,.29,.18,.72,.18,1.23,0,.65-.1,1.33-.31,2.02-.21,.71-.52,1.43-.91,2.14-.4,.71-.89,1.42-1.48,2.09-.58,.67-1.25,1.31-2,1.9l-.81,.64,.66,.79,1.08,1.28,.59,.7,.75-.52c1.51-1.04,2.84-2.21,3.95-3.47,1.11-1.25,2.03-2.57,2.75-3.9,.72-1.33,1.27-2.69,1.62-4.03,.36-1.35,.54-2.65,.54-3.87,0-.92-.11-1.79-.31-2.58-.22-.83-.55-1.57-.99-2.19-.46-.65-1.05-1.16-1.74-1.53-.7-.37-1.5-.55-2.4-.55h0Z"/></g><g><path class="c" d="M267.66,65.24c-.81,0-1.66-.06-2.53-.18-.86-.12-1.71-.31-2.53-.55-.82-.25-1.6-.55-2.33-.92-.74-.37-1.4-.8-1.97-1.28-.57-.49-1.04-1.05-1.37-1.66-.35-.63-.52-1.33-.52-2.09,0-.67,.15-1.26,.44-1.74,.29-.47,.67-.85,1.14-1.15,.45-.28,.95-.49,1.5-.63,.54-.14,1.09-.21,1.65-.23h.2l.48,.41,.02,.2c.1,1.06,.38,1.97,.84,2.72,.46,.76,1.04,1.39,1.71,1.87,.68,.49,1.45,.86,2.28,1.09,.84,.24,1.69,.36,2.52,.36,.77,0,1.52-.11,2.24-.32,.71-.21,1.33-.51,1.87-.89,.52-.38,.95-.84,1.26-1.39,.31-.53,.46-1.14,.46-1.81s-.16-1.3-.48-1.82c-.34-.55-.81-1.05-1.39-1.51-.6-.47-1.31-.91-2.1-1.32-.83-.42-1.69-.84-2.58-1.27-.79-.37-1.58-.75-2.39-1.13-.81-.38-1.6-.81-2.36-1.27-.76-.46-1.49-.96-2.15-1.5-.68-.55-1.28-1.16-1.79-1.82-.52-.67-.93-1.44-1.22-2.27-.29-.83-.44-1.77-.44-2.78,0-1.09,.19-2.11,.58-3.04,.38-.92,.9-1.75,1.56-2.49,.65-.73,1.41-1.37,2.26-1.92,.84-.54,1.75-1,2.71-1.36,.95-.36,1.95-.63,2.95-.81,1-.18,1.99-.27,2.95-.27,1.23,0,2.41,.14,3.52,.41,1.12,.27,2.11,.68,2.95,1.21,.86,.54,1.55,1.2,2.06,1.98,.52,.8,.79,1.7,.79,2.7,0,.39-.07,.82-.2,1.26-.14,.47-.37,.91-.7,1.31-.33,.4-.76,.75-1.28,1.02-.53,.27-1.18,.42-1.92,.44h0c-.68,0-1.39-.1-2.12-.31l-.26-.08-.2-.66,.07-.17c.2-.45,.34-.86,.42-1.23,.08-.37,.12-.71,.12-1.01-.01-.58-.15-1.06-.43-1.45-.29-.41-.67-.75-1.11-1.02-.46-.27-.98-.47-1.55-.59-.58-.13-1.16-.19-1.72-.19-1,0-1.9,.13-2.69,.4-.78,.26-1.44,.62-1.96,1.05-.52,.43-.92,.91-1.2,1.44-.27,.52-.4,1.07-.4,1.63,0,.73,.19,1.36,.57,1.93,.4,.6,.94,1.16,1.61,1.67,.69,.52,1.5,1.03,2.4,1.49,.93,.48,1.9,.95,2.91,1.43,1.14,.54,2.28,1.1,3.4,1.68,1.15,.59,2.19,1.27,3.1,2.02,.92,.77,1.68,1.66,2.26,2.66,.59,1.02,.88,2.23,.88,3.6,0,1.62-.37,3.08-1.09,4.35-.71,1.25-1.68,2.32-2.87,3.19-1.18,.85-2.55,1.51-4.07,1.95-1.51,.44-3.1,.66-4.73,.66Z"/><path class="e" d="M271.1,30.99c1.2,0,2.33,.13,3.4,.39,1.07,.26,2,.64,2.8,1.14,.8,.5,1.44,1.11,1.91,1.83,.47,.72,.71,1.52,.71,2.42,0,.34-.06,.72-.18,1.12-.12,.4-.32,.78-.61,1.13-.28,.35-.66,.65-1.12,.89-.46,.24-1.03,.37-1.7,.38-.63,0-1.29-.1-1.97-.29l-.07-.22c.21-.48,.36-.92,.45-1.32,.09-.4,.13-.78,.13-1.12-.02-.69-.19-1.27-.53-1.74-.34-.47-.76-.86-1.27-1.16-.51-.3-1.07-.52-1.69-.65-.62-.13-1.23-.2-1.83-.2-1.06,0-2.01,.14-2.85,.43-.84,.28-1.54,.66-2.12,1.13-.58,.47-1.02,1.01-1.32,1.6-.31,.6-.46,1.22-.46,1.86,0,.82,.22,1.56,.65,2.21s1.01,1.25,1.73,1.79c.72,.55,1.54,1.06,2.48,1.54,.93,.48,1.91,.96,2.93,1.43,1.14,.54,2.27,1.1,3.39,1.67,1.12,.58,2.12,1.23,3,1.96,.88,.73,1.6,1.57,2.14,2.52,.55,.95,.82,2.07,.82,3.35,0,1.54-.34,2.91-1.02,4.1-.68,1.2-1.59,2.21-2.72,3.03-1.14,.82-2.44,1.45-3.91,1.87-1.47,.43-3,.64-4.59,.64-.79,0-1.61-.06-2.46-.18-.84-.12-1.66-.3-2.46-.54-.79-.24-1.54-.53-2.25-.89-.71-.35-1.33-.75-1.86-1.21-.53-.46-.95-.96-1.26-1.52-.31-.56-.46-1.18-.46-1.85,0-.58,.12-1.08,.37-1.48,.25-.4,.57-.73,.98-.99,.4-.25,.86-.44,1.36-.57,.5-.13,1.01-.2,1.54-.21l.18,.16c.1,1.14,.41,2.12,.91,2.94,.5,.82,1.12,1.5,1.85,2.02s1.54,.91,2.43,1.17c.89,.25,1.78,.38,2.66,.38,.82,0,1.61-.11,2.38-.34,.76-.22,1.44-.54,2.02-.96,.58-.42,1.05-.93,1.4-1.55,.35-.61,.53-1.3,.53-2.06s-.19-1.49-.56-2.09c-.37-.6-.88-1.14-1.5-1.64-.63-.49-1.36-.95-2.19-1.37-.83-.42-1.69-.84-2.59-1.28-.79-.37-1.59-.75-2.39-1.13-.8-.38-1.57-.8-2.32-1.24-.75-.45-1.45-.93-2.1-1.46-.65-.52-1.22-1.1-1.7-1.74-.49-.64-.87-1.35-1.14-2.13-.28-.78-.42-1.66-.42-2.61,0-1.03,.18-1.98,.54-2.85,.36-.87,.85-1.65,1.47-2.34,.62-.7,1.34-1.3,2.15-1.83,.81-.52,1.69-.96,2.61-1.31,.93-.35,1.88-.61,2.86-.78,.98-.17,1.93-.26,2.86-.26m0-1c-.98,0-2,.09-3.03,.27-1.04,.18-2.06,.46-3.04,.83-.99,.37-1.93,.85-2.8,1.41-.89,.57-1.68,1.24-2.36,2-.69,.78-1.25,1.66-1.65,2.63-.41,.99-.61,2.07-.61,3.23,0,1.07,.16,2.06,.47,2.95,.31,.88,.74,1.69,1.29,2.41,.53,.7,1.16,1.34,1.87,1.91,.69,.55,1.43,1.07,2.21,1.54,.77,.46,1.58,.9,2.4,1.29,.8,.38,1.6,.76,2.39,1.13,.88,.43,1.74,.85,2.57,1.27,.77,.39,1.45,.81,2.02,1.26,.53,.42,.96,.88,1.27,1.38,.27,.44,.41,.95,.41,1.56s-.13,1.1-.39,1.57c-.28,.49-.65,.9-1.12,1.23-.49,.35-1.07,.63-1.72,.82-.67,.2-1.37,.3-2.1,.3-.79,0-1.59-.12-2.38-.34-.78-.22-1.49-.56-2.13-1.02-.62-.44-1.15-1.02-1.58-1.72-.42-.69-.68-1.53-.77-2.51l-.04-.4-.3-.26-.18-.16-.29-.26h-.39c-.59,.03-1.18,.11-1.75,.25-.6,.15-1.15,.39-1.64,.69-.54,.34-.97,.78-1.3,1.31-.34,.56-.52,1.23-.52,2,0,.84,.2,1.62,.58,2.33,.36,.66,.86,1.27,1.48,1.8,.59,.51,1.29,.96,2.07,1.35,.75,.37,1.56,.69,2.41,.95,.84,.25,1.72,.45,2.6,.57,.88,.13,1.76,.19,2.6,.19,1.67,0,3.31-.23,4.86-.68,1.58-.46,3-1.14,4.22-2.02,1.25-.9,2.26-2.03,3.01-3.34,.76-1.34,1.15-2.89,1.15-4.6,0-1.46-.32-2.75-.95-3.85-.6-1.05-1.4-1.99-2.37-2.79-.94-.78-2.01-1.48-3.19-2.08-1.11-.57-2.26-1.14-3.41-1.68-.99-.47-1.97-.94-2.9-1.42-.88-.45-1.66-.94-2.33-1.44-.63-.48-1.13-1-1.5-1.55-.32-.49-.48-1.03-.48-1.65,0-.49,.11-.95,.35-1.41,.24-.47,.6-.9,1.07-1.29,.48-.39,1.09-.71,1.81-.96,.73-.25,1.58-.37,2.53-.37,.52,0,1.07,.06,1.62,.18,.51,.11,.98,.29,1.4,.53,.39,.23,.7,.52,.96,.87,.22,.31,.33,.69,.34,1.18,0,.25-.04,.55-.11,.88-.07,.34-.21,.72-.39,1.14l-.15,.34,.11,.35,.07,.22,.16,.53,.53,.15c.77,.22,1.53,.33,2.25,.33,.84-.02,1.56-.18,2.16-.49,.59-.3,1.07-.69,1.44-1.15,.36-.45,.63-.95,.79-1.48,.15-.5,.22-.97,.22-1.41,0-1.09-.29-2.09-.87-2.97-.55-.83-1.29-1.55-2.21-2.13-.89-.55-1.93-.98-3.1-1.27-1.14-.28-2.37-.42-3.64-.42h0Z"/></g><g><path class="c" d="M327.9,65.08c-.82,0-1.73-.08-2.7-.23-.96-.15-2-.32-3.13-.51-1.09-.18-2.32-.35-3.64-.5-1.29-.15-2.7-.22-4.2-.22-1.34,0-2.81,.09-4.38,.25-1.56,.17-3.19,.46-4.84,.85l-.09,.02-.99-.11,.06-.5c.25-2.02,.47-4.24,.66-6.58,.19-2.33,.34-4.79,.47-7.33,.13-2.54,.24-5.14,.33-7.79,.09-2.66,.16-5.32,.2-7.98s.07-5.28,.09-7.87c.01-2.58,.02-5.08,.02-7.49,0-.68-.03-1.26-.1-1.74-.06-.41-.18-.74-.36-.99-.18-.23-.43-.4-.78-.51-.39-.13-.93-.19-1.61-.19-.48,0-1.08,.03-1.78,.08-.7,.05-1.44,.14-2.2,.25l-.51,.08-.34-2.81,.42-.11c2.2-.57,4.12-.99,5.7-1.26,1.6-.27,2.94-.41,4-.41s1.89,.15,2.5,.44c.63,.31,1.1,.78,1.4,1.4,.27,.57,.44,1.27,.49,2.08,.04,.76,.07,1.63,.07,2.59,0,.06,0,.56-.02,1.49-.01,.93-.04,2.16-.08,3.69l-.13,5.34c-.05,2.03-.11,4.17-.18,6.44-.07,2.27-.15,4.6-.24,6.99-.09,2.39-.19,4.72-.3,6.98-.11,2.26-.23,4.4-.36,6.42-.11,1.74-.23,3.31-.36,4.68,1.21-.17,2.37-.29,3.46-.37,1.28-.1,2.49-.15,3.58-.15,1.54,0,3.01,.04,4.35,.12,1.32,.08,2.64,.12,3.93,.12,.85,0,1.61-.12,2.26-.37,.62-.23,1.16-.65,1.61-1.25,.47-.62,.87-1.49,1.19-2.57,.33-1.12,.58-2.56,.76-4.3l.05-.49,2.9,.23v.46c-.02,2.65-.18,4.86-.49,6.58-.32,1.75-.78,3.15-1.37,4.18-.62,1.06-1.39,1.82-2.29,2.24-.88,.41-1.89,.62-3,.62Z"/><path class="e" d="M308.21,11.99c.99,0,1.75,.13,2.28,.39,.53,.26,.92,.65,1.17,1.17,.25,.52,.39,1.15,.44,1.9,.04,.75,.07,1.6,.07,2.56,0,.06,0,.55-.02,1.48-.01,.93-.04,2.16-.08,3.69-.04,1.53-.08,3.31-.13,5.34-.05,2.03-.11,4.17-.18,6.44-.07,2.26-.15,4.59-.24,6.98-.09,2.39-.19,4.72-.3,6.97-.11,2.26-.23,4.4-.36,6.41-.13,2.02-.27,3.78-.42,5.29,1.44-.21,2.79-.36,4.06-.46,1.27-.1,2.45-.15,3.54-.15,1.54,0,2.98,.04,4.32,.12,1.34,.08,2.66,.12,3.96,.12,.91,0,1.72-.13,2.43-.4,.71-.27,1.32-.74,1.83-1.41,.51-.67,.93-1.58,1.27-2.74s.59-2.62,.77-4.4l1.95,.16c-.02,2.63-.18,4.79-.48,6.49-.31,1.7-.74,3.04-1.31,4.01-.57,.98-1.26,1.66-2.07,2.04-.82,.38-1.75,.57-2.79,.57-.79,0-1.67-.07-2.62-.22-.96-.15-2-.32-3.13-.5-1.13-.19-2.35-.35-3.67-.5-1.32-.15-2.74-.22-4.26-.22-1.36,0-2.84,.09-4.43,.26-1.59,.17-3.23,.46-4.9,.86l-.4-.04c.25-2.05,.47-4.25,.66-6.6s.34-4.8,.47-7.34c.13-2.54,.24-5.14,.33-7.8,.09-2.66,.16-5.32,.2-7.98,.04-2.66,.07-5.28,.09-7.87,.01-2.59,.02-5.08,.02-7.49,0-.7-.03-1.3-.1-1.81-.07-.5-.22-.91-.46-1.22-.24-.31-.58-.54-1.02-.68-.44-.14-1.03-.21-1.76-.21-.49,0-1.1,.03-1.82,.08-.72,.05-1.47,.14-2.24,.26l-.22-1.86c2.2-.57,4.08-.99,5.66-1.26,1.58-.27,2.88-.4,3.91-.4m0-1c-1.08,0-2.46,.14-4.08,.42-1.6,.27-3.53,.7-5.74,1.27l-.85,.22,.1,.87,.22,1.86,.12,1.03,1.02-.16c.75-.11,1.48-.2,2.16-.25,.69-.05,1.27-.08,1.74-.08,.78,0,1.22,.09,1.45,.16,.24,.08,.42,.19,.53,.34,.13,.17,.22,.42,.26,.75,.06,.45,.09,1.02,.09,1.67,0,2.41,0,4.9-.02,7.48-.02,2.59-.05,5.23-.09,7.86-.04,2.63-.11,5.31-.2,7.97-.09,2.64-.2,5.26-.32,7.79-.13,2.53-.28,4.99-.47,7.31-.19,2.34-.41,4.54-.66,6.56l-.12,1.01,1.01,.11,.4,.04,.17,.02,.17-.04c1.63-.39,3.23-.68,4.77-.84,1.55-.17,3-.25,4.32-.25,1.48,0,2.88,.07,4.15,.22,1.32,.15,2.53,.32,3.62,.5,1.13,.19,2.18,.36,3.14,.51,1,.16,1.94,.24,2.78,.24,1.19,0,2.27-.22,3.22-.67,1-.47,1.85-1.29,2.52-2.45,.62-1.07,1.11-2.53,1.43-4.34,.32-1.74,.48-3.99,.5-6.66v-.93l-.92-.07-1.95-.16-.98-.08-.1,.98c-.17,1.71-.42,3.13-.74,4.22-.3,1.03-.67,1.84-1.11,2.41-.4,.52-.85,.88-1.38,1.08-.59,.22-1.29,.34-2.08,.34-1.27,0-2.59-.04-3.9-.12-1.35-.08-2.83-.12-4.38-.12-1.11,0-2.32,.05-3.62,.15-.91,.07-1.87,.17-2.87,.3,.11-1.22,.21-2.58,.3-4.07,.13-2.06,.25-4.22,.36-6.43,.11-2.26,.21-4.61,.3-6.99,.09-2.39,.17-4.73,.24-6.99,.07-2.27,.13-4.41,.18-6.44,.05-2.03,.1-3.81,.13-5.34,.04-1.54,.06-2.77,.08-3.7,.02-.94,.02-1.44,.02-1.5,0-.97-.02-1.85-.07-2.62-.05-.87-.23-1.64-.53-2.27-.34-.72-.89-1.27-1.63-1.63-.68-.33-1.57-.5-2.72-.5h0Z"/></g><g><path class="c" d="M344.11,65.03c-.45,0-.87-.04-1.24-.11-.44-.09-.84-.3-1.18-.64-.33-.32-.61-.76-.85-1.36-.23-.56-.42-1.3-.57-2.24-.14-.91-.26-2.06-.33-3.42-.07-1.34-.11-3-.11-4.92,0-1.12,.01-2.39,.03-3.81,.02-1.42,.06-2.93,.1-4.56,.05-1.62,.1-3.34,.18-5.14,.07-1.8,.17-3.67,.29-5.58,.04-.52,.18-.95,.43-1.29,.24-.32,.54-.58,.9-.75,.33-.16,.68-.28,1.05-.34,.35-.06,.67-.08,.97-.08,1.08,0,2.11,.25,3.06,.75l.31,.17-.05,.35c-.25,1.68-.47,3.4-.65,5.1-.18,1.71-.33,3.37-.44,4.95-.11,1.59-.19,3.11-.25,4.52-.05,1.41-.08,2.71-.08,3.85,0,1.54,.02,2.88,.07,3.98,.04,1.09,.12,2.02,.22,2.77,.1,.73,.22,1.31,.37,1.73,.13,.39,.29,.68,.48,.87,.17,.18,.35,.29,.56,.34,.27,.06,.58,.1,.92,.1,.67,0,1.41-.1,2.19-.31,.8-.21,1.62-.5,2.44-.88l.49-.22,.73,2.01-.28,.22c-.56,.45-1.26,.91-2.1,1.37-.83,.46-1.71,.88-2.62,1.26-.91,.38-1.82,.69-2.7,.93-.9,.24-1.69,.37-2.36,.37Zm.54-42.67c-.6,0-1.15-.13-1.63-.38-.46-.25-.86-.58-1.18-.98-.32-.4-.57-.86-.74-1.37-.17-.5-.25-1.03-.25-1.56,0-.74,.13-1.41,.38-1.98,.25-.57,.58-1.06,.98-1.46,.41-.4,.86-.7,1.35-.89,.49-.19,.98-.29,1.46-.29,.58,0,1.11,.11,1.58,.33,.46,.22,.87,.52,1.21,.9,.33,.38,.59,.81,.77,1.29,.18,.48,.27,1,.27,1.55s-.1,1.16-.3,1.72c-.2,.56-.47,1.08-.83,1.54-.36,.47-.81,.86-1.32,1.14-.53,.29-1.12,.44-1.76,.44Z"/><path class="e" d="M345.03,13.94c.51,0,.96,.09,1.37,.28,.4,.19,.75,.44,1.04,.77,.29,.33,.52,.71,.67,1.13,.16,.43,.24,.89,.24,1.38,0,.52-.09,1.04-.27,1.56-.18,.52-.43,.98-.75,1.4-.32,.42-.71,.76-1.17,1.01-.46,.25-.96,.38-1.51,.38-.52,0-.99-.11-1.39-.33-.4-.22-.75-.5-1.03-.85-.28-.35-.5-.75-.65-1.21-.15-.46-.22-.92-.22-1.4,0-.67,.11-1.27,.34-1.78,.22-.52,.52-.95,.87-1.3,.36-.35,.75-.61,1.19-.78,.43-.17,.86-.26,1.28-.26m-1.26,17.36c1,0,1.94,.23,2.83,.69-.25,1.7-.47,3.41-.65,5.12-.18,1.71-.33,3.37-.44,4.97-.11,1.6-.19,3.11-.25,4.54-.05,1.43-.08,2.72-.08,3.87,0,1.56,.02,2.89,.07,4,.04,1.11,.12,2.05,.22,2.81,.1,.76,.24,1.37,.39,1.83,.16,.46,.35,.81,.58,1.05s.5,.41,.81,.48c.31,.07,.65,.11,1.04,.11,.72,0,1.49-.11,2.32-.33s1.67-.52,2.52-.91l.43,1.17c-.54,.43-1.21,.87-2.03,1.32-.81,.45-1.67,.86-2.57,1.23-.9,.37-1.78,.68-2.63,.91-.86,.23-1.6,.35-2.23,.35-.42,0-.8-.03-1.14-.1-.34-.07-.65-.24-.93-.5-.28-.27-.52-.67-.74-1.19-.22-.52-.4-1.23-.54-2.13-.14-.9-.25-2.02-.33-3.36-.07-1.34-.11-2.97-.11-4.89,0-1.12,.01-2.39,.03-3.8,.02-1.41,.06-2.93,.1-4.55s.1-3.33,.18-5.14c.07-1.8,.17-3.66,.29-5.57,.03-.42,.14-.76,.34-1.02s.43-.46,.72-.61c.28-.14,.59-.24,.91-.29,.32-.05,.62-.08,.89-.08m1.26-18.36c-.54,0-1.1,.11-1.65,.33-.56,.22-1.07,.56-1.52,1-.45,.44-.82,.98-1.09,1.62-.28,.64-.42,1.37-.42,2.18,0,.58,.09,1.16,.27,1.71,.19,.57,.46,1.08,.82,1.53,.37,.45,.82,.83,1.34,1.1,.55,.29,1.18,.44,1.86,.44,.72,0,1.4-.17,2-.51,.57-.32,1.07-.75,1.47-1.27,.39-.5,.69-1.07,.9-1.68,.22-.62,.32-1.25,.32-1.89s-.1-1.19-.3-1.73c-.2-.54-.49-1.03-.86-1.45-.38-.43-.84-.77-1.37-1.02-.53-.25-1.14-.37-1.79-.37h0Zm-1.26,17.36c-.32,0-.67,.03-1.04,.09-.42,.07-.82,.2-1.2,.39-.42,.21-.79,.52-1.07,.9-.31,.42-.49,.94-.53,1.55-.12,1.92-.22,3.8-.29,5.6-.07,1.77-.13,3.51-.18,5.15-.05,1.63-.08,3.15-.1,4.56-.02,1.42-.03,2.69-.03,3.82,0,1.93,.04,3.59,.11,4.94,.08,1.37,.19,2.54,.34,3.47,.16,.99,.35,1.76,.6,2.36,.27,.66,.59,1.16,.97,1.52,.41,.4,.9,.66,1.43,.77,.4,.08,.85,.12,1.34,.12,.72,0,1.55-.13,2.49-.38,.9-.24,1.83-.56,2.76-.95,.93-.38,1.82-.82,2.67-1.28,.86-.48,1.6-.95,2.17-1.42l.56-.45-.25-.67-.43-1.17-.37-1.02-.98,.45c-.8,.36-1.59,.65-2.36,.85-.74,.19-1.44,.29-2.07,.29-.31,0-.58-.03-.81-.08-.12-.03-.22-.09-.31-.19-.09-.1-.23-.3-.37-.7-.13-.39-.25-.94-.35-1.64-.1-.73-.17-1.64-.22-2.72-.04-1.1-.07-2.43-.07-3.96,0-1.14,.03-2.43,.08-3.83,.05-1.41,.13-2.92,.25-4.51,.11-1.57,.26-3.23,.43-4.93,.18-1.7,.4-3.41,.64-5.08l.1-.7-.63-.33c-1.02-.54-2.13-.81-3.29-.81h0Z"/></g><g><path class="c" d="M369.9,65.26c-.96,0-1.94-.11-2.9-.33-.97-.22-1.93-.56-2.85-1-.93-.45-1.81-1.04-2.63-1.74-.6-.52-1.17-1.11-1.69-1.77-.42,.97-.86,1.81-1.29,2.49-.55,.86-1.07,1.56-1.55,2.08l-.2,.22-1.99-.5,.19-.52c.81-2.24,1.41-4.98,1.79-8.13,.39-3.18,.69-6.83,.89-10.85,.07-1.73,.17-3.71,.28-5.92,.11-2.21,.23-4.54,.35-7,.12-2.45,.25-4.96,.38-7.53,.13-2.56,.27-5.06,.4-7.48l.38-6.88c.12-2.17,.23-4.09,.34-5.77,.02-.45,.17-.87,.45-1.21,.25-.32,.57-.57,.95-.76,.35-.18,.76-.31,1.2-.39,.42-.08,.85-.12,1.27-.12,.98,0,2.02,.26,3.07,.77l.32,.16-.04,.35c-.28,2.39-.57,4.86-.85,7.4-.28,2.54-.56,5.11-.82,7.71-.26,2.6-.52,5.22-.76,7.85-.25,2.63-.47,5.22-.67,7.78-.2,2.55-.38,5.08-.53,7.53-.1,1.71-.19,3.38-.27,4.98,.96-2.15,1.98-4.11,3.04-5.85,1.37-2.23,2.79-4.13,4.21-5.64,1.43-1.53,2.88-2.7,4.31-3.48,1.45-.8,2.85-1.21,4.15-1.21,1.1,0,2.1,.21,2.95,.62,.85,.41,1.59,.96,2.21,1.64,.61,.67,1.13,1.45,1.54,2.32,.4,.85,.73,1.75,.97,2.69,.24,.92,.42,1.87,.52,2.82,.1,.94,.15,1.83,.15,2.65,0,2.25-.23,4.39-.67,6.36-.45,1.96-1.08,3.78-1.87,5.4-.79,1.62-1.74,3.09-2.83,4.35-1.09,1.27-2.28,2.36-3.55,3.23-1.27,.88-2.64,1.55-4.05,2-1.42,.46-2.87,.69-4.3,.69Zm-6.65-9.28c.21,.85,.54,1.63,.97,2.32,.44,.7,.97,1.31,1.59,1.8,.62,.49,1.31,.88,2.07,1.14,.76,.26,1.57,.4,2.43,.4,1.4,0,2.74-.36,3.98-1.07,1.25-.71,2.36-1.77,3.3-3.13,.95-1.38,1.72-3.1,2.27-5.11,.56-2.02,.85-4.34,.85-6.92,0-.99-.08-2.02-.23-3.07-.15-1.04-.39-1.98-.71-2.82-.31-.81-.72-1.47-1.21-1.98-.45-.46-.98-.69-1.63-.69-.83,0-1.66,.21-2.47,.63-.84,.43-1.67,1.02-2.47,1.76-.81,.75-1.59,1.62-2.33,2.6-.75,.99-1.46,2.04-2.11,3.13-.66,1.09-1.25,2.2-1.77,3.31-.52,1.11-.98,2.18-1.35,3.18-.37,1-.67,1.91-.87,2.72-.19,.75-.29,1.36-.3,1.8Z"/><path class="e" d="M363.67,2.64c.91,0,1.86,.24,2.85,.72-.28,2.39-.57,4.86-.85,7.4-.28,2.54-.56,5.11-.82,7.71-.26,2.6-.52,5.22-.76,7.85-.25,2.63-.47,5.23-.67,7.79-.2,2.56-.38,5.08-.53,7.53-.15,2.46-.27,4.82-.36,7.08l.25,.02c1.18-2.9,2.45-5.46,3.81-7.67s2.74-4.07,4.15-5.56c1.4-1.49,2.8-2.62,4.18-3.39,1.38-.76,2.69-1.14,3.91-1.14,1.03,0,1.94,.19,2.74,.57,.79,.38,1.48,.89,2.06,1.52,.58,.64,1.07,1.37,1.46,2.2,.39,.83,.7,1.7,.94,2.6,.24,.9,.41,1.82,.5,2.75,.1,.93,.15,1.79,.15,2.6,0,2.23-.22,4.31-.66,6.25-.44,1.94-1.05,3.7-1.83,5.29-.78,1.59-1.7,3.01-2.76,4.25-1.06,1.24-2.21,2.29-3.45,3.14-1.24,.85-2.55,1.5-3.92,1.94-1.38,.44-2.76,.66-4.15,.66-.93,0-1.86-.1-2.79-.31-.93-.21-1.85-.53-2.74-.96-.89-.43-1.73-.99-2.52-1.67-.79-.68-1.5-1.48-2.13-2.41-.52,1.32-1.05,2.39-1.59,3.23-.54,.84-1.04,1.51-1.5,2.02l-1.17-.29c.82-2.29,1.43-5.04,1.82-8.24,.39-3.21,.69-6.84,.9-10.89,.07-1.73,.17-3.71,.28-5.92,.11-2.21,.23-4.54,.35-7,.12-2.45,.25-4.96,.38-7.52,.13-2.56,.27-5.06,.4-7.48,.13-2.42,.26-4.72,.38-6.88,.12-2.17,.23-4.09,.34-5.76,.01-.36,.13-.67,.34-.93,.21-.26,.47-.47,.78-.63,.31-.16,.67-.27,1.07-.35,.4-.07,.79-.11,1.18-.11m6.64,59.49c1.49,0,2.9-.38,4.23-1.13,1.32-.75,2.48-1.85,3.46-3.29,.99-1.44,1.77-3.19,2.34-5.26,.58-2.07,.86-4.42,.86-7.05,0-1.02-.08-2.06-.24-3.14-.16-1.08-.4-2.05-.74-2.93-.34-.87-.78-1.59-1.32-2.15-.55-.56-1.21-.84-1.98-.84-.91,0-1.81,.23-2.7,.68-.89,.46-1.75,1.07-2.58,1.84-.83,.77-1.63,1.66-2.39,2.67-.76,1.01-1.48,2.07-2.14,3.17-.67,1.11-1.26,2.22-1.79,3.35-.53,1.13-.99,2.2-1.37,3.22-.38,1.02-.68,1.94-.89,2.77-.21,.83-.31,1.49-.31,1.98,.22,.93,.57,1.77,1.04,2.52,.47,.75,1.04,1.4,1.7,1.93,.67,.53,1.4,.94,2.22,1.22,.81,.28,1.68,.43,2.59,.43m-6.64-60.49c-.45,0-.91,.04-1.36,.13-.49,.09-.93,.24-1.33,.44-.44,.22-.82,.52-1.12,.9-.34,.43-.53,.94-.55,1.51-.1,1.65-.22,3.58-.34,5.75l-.38,6.88c-.13,2.42-.27,4.92-.4,7.48-.13,2.57-.26,5.07-.38,7.53-.12,2.45-.24,4.78-.35,7-.11,2.22-.21,4.19-.28,5.93-.21,4-.51,7.64-.89,10.81-.38,3.12-.97,5.82-1.76,8.02l-.37,1.04,1.07,.27,1.17,.29,.58,.14,.4-.44c.5-.55,1.04-1.27,1.6-2.15,.33-.52,.67-1.13,1-1.82,.39,.44,.8,.85,1.23,1.22,.85,.73,1.77,1.34,2.74,1.81,.95,.46,1.95,.82,2.95,1.04,1,.22,2.01,.34,3.01,.34,1.49,0,2.99-.24,4.45-.71,1.46-.47,2.87-1.17,4.19-2.07,1.31-.9,2.53-2.01,3.65-3.31,1.11-1.3,2.08-2.8,2.9-4.46,.81-1.65,1.45-3.51,1.9-5.51,.46-2,.69-4.18,.69-6.47,0-.84-.05-1.75-.15-2.7-.1-.98-.28-1.95-.53-2.9-.25-.96-.59-1.89-1-2.77-.43-.92-.98-1.74-1.63-2.45-.67-.73-1.46-1.32-2.37-1.75-.92-.45-1.99-.67-3.17-.67-1.39,0-2.87,.43-4.4,1.27-1.47,.81-2.96,2.01-4.43,3.58-1.45,1.54-2.88,3.46-4.27,5.72-.68,1.11-1.35,2.32-1.99,3.6,.04-.81,.09-1.62,.14-2.45,.15-2.44,.33-4.97,.53-7.52,.2-2.56,.43-5.17,.67-7.78,.25-2.63,.5-5.24,.76-7.84,.26-2.57,.53-5.16,.82-7.7,.28-2.54,.57-5,.85-7.39l.08-.71-.64-.31c-1.12-.54-2.22-.82-3.28-.82h0Zm.08,54.28c.01-.3,.08-.81,.28-1.63,.2-.79,.49-1.68,.85-2.66,.37-.99,.82-2.05,1.34-3.14,.51-1.09,1.1-2.19,1.75-3.26,.64-1.07,1.34-2.11,2.08-3.09,.72-.96,1.49-1.81,2.27-2.54,.76-.7,1.55-1.27,2.35-1.68,.74-.38,1.5-.57,2.25-.57,.51,0,.91,.17,1.27,.54,.45,.46,.82,1.07,1.11,1.81,.31,.8,.54,1.71,.68,2.71,.15,1.02,.22,2.03,.22,3,0,2.53-.28,4.81-.83,6.78-.54,1.95-1.29,3.62-2.2,4.96-.9,1.3-1.95,2.31-3.14,2.98-1.16,.66-2.42,1-3.73,1-.8,0-1.56-.12-2.26-.37-.7-.25-1.35-.6-1.93-1.06-.57-.46-1.07-1.02-1.48-1.68-.39-.63-.69-1.34-.89-2.11h0Z"/></g><g><path class="c" d="M394.59,64.57l.04-.51c.12-1.42,.23-2.96,.34-4.63,.1-1.67,.2-3.37,.29-5.1,.09-1.72,.17-3.43,.24-5.13,.07-1.7,.13-3.28,.18-4.75,.05-1.47,.09-2.79,.11-3.95,.02-1.16,.03-2.08,.03-2.75,0-.53-.02-1-.06-1.38-.04-.33-.12-.6-.24-.81-.1-.18-.25-.3-.45-.39-.24-.1-.58-.15-1.02-.15-.24,0-.48,.01-.73,.04-.26,.03-.55,.07-.86,.13-.32,.06-.68,.13-1.08,.23-.41,.1-1.92,.47-1.92,.47l-.53-2.55,.41-.15c2.49-.9,4.53-1.54,6.09-1.91,1.59-.38,2.65-.56,3.23-.56,1.15,0,2,.36,2.52,1.07,.5,.67,.74,1.61,.74,2.87,0,.11-.01,.42-.05,.95l-.12,1.99c-.05,.82-.12,1.76-.19,2.84-.08,1.08-.16,2.24-.26,3.47-.08,1.07-.18,2.19-.28,3.34,.4-1.34,.82-2.63,1.26-3.86,.91-2.55,1.95-4.81,3.09-6.69,1.15-1.91,2.45-3.44,3.84-4.54,1.44-1.14,3.04-1.71,4.76-1.71,.62,0,1.22,.1,1.76,.3,.55,.2,1.04,.49,1.44,.85,.41,.36,.73,.8,.97,1.3,.24,.51,.36,1.07,.36,1.66,0,.75-.16,1.47-.49,2.15-.32,.69-.84,1.31-1.53,1.83l-.13,.1h-.53l-.14-.12c-.59-.49-1.14-.84-1.65-1.05-.5-.21-1.03-.31-1.59-.31-.6,0-1.2,.12-1.76,.34-.57,.23-1.1,.57-1.58,1-.81,.74-1.58,1.74-2.28,2.96-.72,1.25-1.38,2.66-1.98,4.18-.6,1.54-1.14,3.17-1.62,4.85-.48,1.7-.9,3.37-1.25,4.97-.35,1.61-.63,3.13-.85,4.54-.21,1.41-.37,2.61-.46,3.57l-.04,.4-5.13,.64-.92-.06Z"/><path class="e" d="M413.96,30.94c.57,0,1.1,.09,1.59,.27s.92,.43,1.28,.75c.36,.32,.64,.7,.85,1.14,.21,.44,.31,.92,.31,1.45,0,.67-.15,1.32-.44,1.94-.29,.62-.75,1.17-1.38,1.65h-.18c-.63-.52-1.22-.9-1.78-1.13-.56-.23-1.15-.35-1.78-.35-.67,0-1.32,.13-1.95,.38-.63,.25-1.2,.62-1.73,1.1-.85,.78-1.64,1.8-2.38,3.08s-1.4,2.7-2.01,4.25c-.61,1.55-1.15,3.19-1.64,4.9-.49,1.71-.9,3.38-1.26,5-.35,1.62-.64,3.15-.85,4.57-.22,1.43-.37,2.63-.46,3.6l-4.69,.58-.36-.02c.12-1.42,.23-2.97,.34-4.64,.1-1.67,.2-3.38,.29-5.1,.09-1.73,.17-3.44,.24-5.14,.07-1.7,.13-3.28,.18-4.75,.05-1.47,.09-2.79,.11-3.96,.02-1.17,.03-2.09,.03-2.76,0-.55-.02-1.03-.07-1.44-.04-.4-.15-.74-.3-1.01-.16-.27-.38-.47-.68-.59-.3-.13-.7-.19-1.21-.19-.25,0-.52,.02-.79,.04-.27,.03-.57,.08-.9,.13-.33,.06-.7,.14-1.11,.24-.41,.1-.89,.21-1.42,.35l-.34-1.61c2.48-.9,4.49-1.53,6.03-1.9,1.54-.37,2.58-.55,3.12-.55,.99,0,1.69,.29,2.12,.86,.43,.58,.64,1.43,.64,2.57,0,.1-.01,.41-.04,.92-.03,.51-.07,1.17-.12,1.98-.05,.82-.12,1.76-.19,2.84-.08,1.08-.16,2.23-.26,3.46s-.21,2.52-.32,3.86c-.12,1.34-.25,2.67-.38,4l.22,.02c.72-2.93,1.53-5.66,2.43-8.2,.9-2.53,1.92-4.74,3.05-6.6,1.13-1.87,2.37-3.34,3.72-4.41,1.35-1.07,2.84-1.6,4.45-1.6m0-1c-1.84,0-3.54,.61-5.07,1.82-1.44,1.14-2.77,2.71-3.96,4.67-1.13,1.88-2.17,4.11-3.08,6.63,.07-.91,.13-1.77,.19-2.59,.07-1.08,.14-2.03,.19-2.84,.05-.82,.09-1.48,.12-1.99,.03-.54,.05-.87,.05-.98,0-1.37-.27-2.4-.83-3.16-.62-.84-1.61-1.27-2.92-1.27-.63,0-1.69,.18-3.35,.58-1.57,.37-3.64,1.02-6.14,1.93l-.82,.29,.18,.85,.34,1.61,.21,1.02,1.01-.25c.53-.13,1-.25,1.41-.34,.39-.09,.74-.17,1.06-.22,.3-.06,.58-.1,.83-.13,.23-.03,.46-.04,.67-.04,.49,0,.72,.07,.82,.11,.13,.05,.18,.12,.21,.18,.09,.15,.14,.36,.17,.62,.04,.37,.06,.81,.06,1.33,0,.67-.01,1.58-.03,2.74-.02,1.16-.06,2.48-.11,3.94-.05,1.47-.11,3.05-.18,4.75-.07,1.69-.15,3.4-.23,5.12-.09,1.72-.19,3.42-.29,5.09-.11,1.68-.22,3.23-.33,4.62l-.09,1.02,1.02,.06,.36,.02h.19l4.69-.59,.8-.1,.07-.8c.09-.95,.24-2.14,.45-3.54,.21-1.4,.49-2.92,.84-4.51,.34-1.59,.76-3.25,1.24-4.94,.47-1.67,1.01-3.29,1.61-4.81,.59-1.5,1.24-2.89,1.94-4.12,.68-1.18,1.41-2.14,2.18-2.84,.43-.4,.91-.7,1.43-.91,.51-.21,1.03-.31,1.58-.31,.5,0,.96,.09,1.4,.27,.46,.19,.98,.52,1.52,.98l.28,.23h.88l.27-.2c.75-.57,1.32-1.25,1.68-2.02,.35-.75,.53-1.55,.53-2.37,0-.67-.14-1.3-.41-1.87-.27-.56-.63-1.05-1.09-1.46-.45-.41-.99-.72-1.6-.95-.6-.22-1.25-.33-1.93-.33h0Z"/></g><g><path class="c" d="M424.39,65.17c-1.09,0-2.11-.19-3.02-.58-.91-.38-1.7-.92-2.35-1.59-.65-.67-1.16-1.48-1.52-2.39-.36-.92-.54-1.92-.54-3,0-1.38,.26-2.66,.77-3.79,.51-1.13,1.22-2.15,2.12-3.04,.89-.88,1.97-1.66,3.21-2.3,1.22-.63,2.56-1.17,3.99-1.58,1.43-.42,2.95-.73,4.54-.94,1.44-.18,2.92-.29,4.41-.3,.08-.78,.15-1.54,.21-2.28,.07-.86,.1-1.83,.1-2.88,0-1.1-.18-2.07-.54-2.87-.36-.8-.83-1.46-1.4-1.96-.58-.51-1.23-.89-1.96-1.13-.74-.25-1.48-.38-2.22-.38-1.01,0-1.86,.11-2.54,.31-.66,.2-1.2,.48-1.6,.82-.39,.33-.67,.73-.84,1.18-.18,.47-.27,.99-.27,1.54,0,.66,.12,1.33,.36,1.99,.24,.68,.61,1.35,1.09,1.99l.16,.22-.25,.69-.18,.09c-.92,.45-1.86,.68-2.8,.68-.56,0-1.1-.09-1.59-.26-.5-.18-.94-.44-1.32-.79s-.67-.77-.88-1.27c-.21-.49-.32-1.05-.32-1.66,0-.96,.24-1.88,.7-2.73,.45-.82,1.06-1.58,1.79-2.26,.73-.67,1.58-1.27,2.54-1.8,.95-.52,1.94-.96,2.94-1.32,1.01-.36,2.03-.64,3.05-.83,1.02-.19,1.98-.29,2.86-.29,1.62,0,3.04,.22,4.2,.66,1.19,.45,2.17,1.11,2.92,1.97,.74,.85,1.29,1.89,1.63,3.1,.33,1.18,.5,2.52,.5,3.99,0,.99-.04,2.1-.12,3.29-.08,1.18-.18,2.42-.28,3.72-.1,1.29-.2,2.62-.28,3.99-.08,1.36-.12,2.73-.12,4.08,0,2.03,.37,3.57,1.1,4.56,.71,.96,1.6,1.42,2.75,1.42,1.05,0,2.27-.41,3.6-1.21l.41-.24,1.15,1.7-.29,.29c-1.04,1.04-2.19,1.85-3.43,2.39-1.24,.55-2.56,.83-3.92,.83-1.03,0-2-.18-2.88-.53-.89-.36-1.67-.89-2.31-1.59-.64-.7-1.15-1.59-1.5-2.64-.34-1.03-.52-2.24-.52-3.59,0-.12,0-.23,0-.35-.4,.68-.82,1.36-1.28,2.03-.86,1.27-1.82,2.42-2.85,3.42-1.04,1.01-2.16,1.83-3.34,2.46-1.21,.64-2.5,.97-3.83,.97Zm11.32-16.64c-.9,.04-1.8,.1-2.68,.19-1.06,.11-2.08,.28-3.04,.51-.94,.23-1.83,.54-2.63,.91-.78,.36-1.47,.82-2.03,1.36-.55,.53-.99,1.16-1.31,1.88-.31,.72-.47,1.57-.47,2.52,0,.54,.06,1.06,.18,1.55,.11,.47,.29,.88,.53,1.23,.23,.34,.52,.6,.88,.8,.35,.19,.79,.29,1.3,.29,.6,0,1.24-.14,1.88-.43,.67-.29,1.35-.71,2.01-1.23,.67-.53,1.31-1.17,1.92-1.91,.61-.74,1.17-1.57,1.67-2.45,.49-.88,.9-1.82,1.23-2.8,.26-.79,.45-1.6,.57-2.43Z"/><path class="e" d="M433.09,30.96c1.57,0,2.91,.21,4.03,.63,1.11,.42,2.02,1.03,2.71,1.83,.69,.8,1.2,1.77,1.52,2.9,.32,1.14,.48,2.42,.48,3.86,0,.99-.04,2.07-.12,3.25-.08,1.18-.18,2.42-.28,3.71-.1,1.29-.2,2.63-.28,4-.08,1.38-.12,2.74-.12,4.1,0,2.15,.4,3.77,1.2,4.85,.8,1.08,1.85,1.63,3.15,1.63,1.15,0,2.44-.43,3.86-1.28l.65,.96c-1,1-2.09,1.76-3.27,2.29-1.18,.52-2.42,.78-3.72,.78-.97,0-1.87-.16-2.69-.49-.82-.33-1.53-.82-2.13-1.47-.6-.65-1.06-1.47-1.39-2.46-.33-.99-.49-2.13-.49-3.43,0-.39,.01-.78,.03-1.17,.02-.39,.07-.8,.15-1.23h-.13c-.64,1.29-1.39,2.55-2.23,3.8-.84,1.25-1.77,2.36-2.78,3.34-1.01,.98-2.09,1.77-3.23,2.38-1.14,.61-2.34,.91-3.6,.91-1.03,0-1.97-.18-2.83-.54-.85-.36-1.58-.85-2.19-1.48s-1.08-1.37-1.41-2.23c-.34-.86-.5-1.8-.5-2.81,0-1.32,.24-2.51,.73-3.59,.49-1.08,1.16-2.04,2.02-2.89,.86-.85,1.89-1.59,3.08-2.21,1.2-.62,2.5-1.14,3.9-1.55,1.41-.41,2.89-.72,4.46-.92,1.57-.2,3.17-.3,4.8-.3,.1-.94,.19-1.85,.26-2.74,.07-.88,.1-1.85,.1-2.92,0-1.18-.19-2.21-.58-3.07-.39-.87-.9-1.58-1.52-2.13s-1.34-.96-2.13-1.23c-.79-.27-1.58-.4-2.38-.4-1.06,0-1.96,.11-2.69,.34-.73,.22-1.33,.53-1.78,.92-.46,.39-.79,.85-.99,1.38-.2,.53-.3,1.1-.3,1.72,0,.72,.13,1.44,.39,2.16,.26,.73,.65,1.43,1.15,2.12l-.09,.25c-.85,.42-1.71,.63-2.58,.63-.51,0-.98-.08-1.42-.24-.44-.16-.82-.38-1.14-.68-.32-.3-.58-.67-.76-1.1-.19-.43-.28-.92-.28-1.46,0-.88,.21-1.71,.64-2.49,.43-.78,.99-1.49,1.69-2.13,.7-.64,1.52-1.22,2.44-1.73,.93-.51,1.88-.94,2.87-1.29,.99-.35,1.98-.62,2.97-.81,.99-.19,1.92-.28,2.77-.28m3.18,17.04c-1.11,.03-2.21,.1-3.3,.21-1.09,.11-2.13,.29-3.11,.53-.98,.24-1.89,.55-2.72,.94-.84,.39-1.56,.87-2.16,1.45s-1.08,1.26-1.42,2.04c-.34,.78-.52,1.69-.52,2.72,0,.58,.06,1.14,.19,1.67,.13,.53,.33,1,.61,1.4,.28,.4,.63,.72,1.05,.95,.43,.23,.94,.35,1.54,.35,.67,0,1.37-.16,2.09-.47,.72-.31,1.42-.75,2.12-1.3,.69-.55,1.36-1.21,2-1.98,.64-.77,1.21-1.61,1.72-2.52,.51-.91,.93-1.87,1.27-2.88,.34-1.01,.56-2.04,.66-3.11m-3.18-18.04c-.91,0-1.9,.1-2.95,.3-1.04,.2-2.09,.48-3.12,.85-1.03,.37-2.05,.82-3.02,1.35-.99,.54-1.88,1.17-2.64,1.87-.78,.71-1.42,1.52-1.9,2.39-.51,.92-.76,1.92-.76,2.97,0,.67,.12,1.3,.36,1.85,.24,.56,.58,1.04,1,1.43,.42,.39,.92,.69,1.49,.89,.54,.19,1.14,.29,1.76,.29,1.02,0,2.03-.25,3.02-.73l.36-.18,.14-.38,.09-.25,.18-.51-.32-.43c-.45-.61-.79-1.23-1.02-1.86-.22-.61-.33-1.23-.33-1.83,0-.49,.08-.95,.24-1.36,.14-.37,.37-.69,.7-.97,.35-.3,.83-.54,1.43-.72,.63-.19,1.44-.29,2.4-.29,.68,0,1.37,.12,2.06,.35,.66,.23,1.27,.57,1.79,1.04,.52,.46,.95,1.06,1.27,1.79,.33,.73,.5,1.63,.5,2.66s-.03,1.99-.1,2.84c-.05,.59-.1,1.2-.16,1.82-1.36,.03-2.71,.13-4.03,.3-1.61,.21-3.16,.53-4.62,.95-1.46,.43-2.83,.97-4.08,1.62-1.28,.66-2.4,1.47-3.33,2.39-.94,.94-1.69,2.01-2.23,3.19-.54,1.2-.82,2.55-.82,4,0,1.14,.19,2.21,.57,3.18,.38,.98,.93,1.84,1.62,2.56,.7,.72,1.55,1.3,2.52,1.71,.97,.41,2.05,.62,3.21,.62,1.41,0,2.78-.34,4.07-1.02,1.22-.65,2.39-1.5,3.46-2.54,1.05-1.02,2.03-2.2,2.91-3.5,.14-.21,.28-.42,.42-.63,.08,.88,.24,1.69,.49,2.42,.37,1.12,.91,2.06,1.6,2.82,.7,.76,1.54,1.34,2.49,1.72,.94,.37,1.97,.56,3.06,.56,1.43,0,2.82-.29,4.13-.87,1.29-.57,2.49-1.41,3.58-2.5l.58-.58-.46-.68-.65-.96-.53-.79-.81,.49c-1.26,.75-2.38,1.14-3.34,1.14s-1.73-.39-2.35-1.22c-.67-.9-1-2.34-1-4.26,0-1.33,.04-2.7,.12-4.04,.08-1.34,.17-2.68,.28-3.98,.1-1.3,.2-2.54,.28-3.72,.08-1.2,.13-2.32,.13-3.32,0-1.52-.17-2.91-.52-4.13-.36-1.27-.94-2.38-1.73-3.29-.8-.92-1.85-1.63-3.12-2.11-1.22-.46-2.7-.69-4.38-.69h0Zm-6.66,29.31c-.43,0-.78-.08-1.06-.23-.29-.16-.52-.37-.71-.64-.21-.3-.36-.66-.46-1.07-.11-.45-.16-.94-.16-1.44,0-.89,.15-1.67,.43-2.32,.29-.66,.69-1.24,1.2-1.72,.52-.5,1.16-.92,1.9-1.26,.78-.36,1.63-.66,2.54-.88,.94-.23,1.94-.4,2.97-.5,.67-.07,1.35-.12,2.04-.16-.11,.59-.26,1.17-.45,1.74-.31,.94-.72,1.86-1.19,2.71-.48,.86-1.02,1.65-1.61,2.37-.59,.71-1.21,1.33-1.85,1.84-.62,.5-1.26,.89-1.9,1.17-.59,.26-1.15,.39-1.68,.39h0Z"/></g><g><path class="c" d="M453.41,64.57l.04-.51c.12-1.42,.23-2.96,.34-4.63,.1-1.67,.2-3.37,.29-5.1,.09-1.72,.17-3.43,.24-5.13,.07-1.7,.13-3.28,.18-4.75,.05-1.47,.09-2.79,.11-3.95,.02-1.16,.03-2.08,.03-2.75,0-.53-.02-1-.06-1.38-.04-.33-.12-.6-.24-.81-.1-.18-.25-.3-.45-.39-.24-.1-.58-.15-1.02-.15-.24,0-.48,.01-.73,.04-.26,.03-.55,.07-.86,.13-.32,.06-.68,.13-1.08,.23-.41,.1-1.92,.47-1.92,.47l-.53-2.55,.41-.15c2.49-.9,4.53-1.54,6.09-1.91,1.59-.38,2.65-.56,3.23-.56,1.15,0,2,.36,2.52,1.07,.5,.67,.74,1.61,.74,2.87,0,.11-.01,.42-.05,.95l-.12,1.99c-.05,.82-.12,1.76-.19,2.84-.08,1.08-.16,2.24-.26,3.47-.08,1.07-.18,2.19-.28,3.34,.4-1.34,.82-2.63,1.26-3.86,.91-2.55,1.95-4.81,3.09-6.69,1.15-1.91,2.45-3.44,3.84-4.54,1.44-1.14,3.04-1.71,4.76-1.71,.62,0,1.22,.1,1.76,.3,.55,.2,1.04,.49,1.44,.85,.41,.36,.73,.8,.97,1.3,.24,.51,.36,1.07,.36,1.66,0,.75-.16,1.47-.49,2.15-.32,.69-.84,1.31-1.53,1.83l-.13,.1h-.53l-.14-.12c-.59-.49-1.14-.84-1.65-1.05-.5-.21-1.03-.31-1.59-.31-.6,0-1.2,.12-1.76,.34-.57,.23-1.1,.57-1.58,1-.81,.74-1.58,1.74-2.28,2.96-.72,1.25-1.38,2.66-1.98,4.18-.6,1.54-1.14,3.17-1.62,4.85-.48,1.7-.9,3.37-1.25,4.97-.35,1.61-.63,3.13-.85,4.54-.21,1.41-.37,2.61-.46,3.57l-.04,.4-5.13,.64-.92-.06Z"/><path class="e" d="M472.79,30.94c.57,0,1.1,.09,1.59,.27s.92,.43,1.28,.75c.36,.32,.64,.7,.85,1.14,.21,.44,.31,.92,.31,1.45,0,.67-.15,1.32-.44,1.94-.29,.62-.75,1.17-1.38,1.65h-.18c-.63-.52-1.22-.9-1.78-1.13-.56-.23-1.15-.35-1.78-.35-.67,0-1.32,.13-1.95,.38-.63,.25-1.2,.62-1.73,1.1-.85,.78-1.64,1.8-2.38,3.08s-1.4,2.7-2.01,4.25c-.61,1.55-1.15,3.19-1.64,4.9-.49,1.71-.9,3.38-1.26,5-.35,1.62-.64,3.15-.85,4.57-.22,1.43-.37,2.63-.46,3.6l-4.69,.58-.36-.02c.12-1.42,.23-2.97,.34-4.64,.1-1.67,.2-3.38,.29-5.1,.09-1.73,.17-3.44,.24-5.14,.07-1.7,.13-3.28,.18-4.75,.05-1.47,.09-2.79,.11-3.96,.02-1.17,.03-2.09,.03-2.76,0-.55-.02-1.03-.07-1.44-.04-.4-.15-.74-.3-1.01-.16-.27-.38-.47-.68-.59-.3-.13-.7-.19-1.21-.19-.25,0-.52,.02-.79,.04-.27,.03-.57,.08-.9,.13-.33,.06-.7,.14-1.11,.24-.41,.1-.89,.21-1.42,.35l-.34-1.61c2.48-.9,4.49-1.53,6.03-1.9,1.54-.37,2.58-.55,3.12-.55,.99,0,1.69,.29,2.12,.86,.43,.58,.64,1.43,.64,2.57,0,.1-.01,.41-.04,.92-.03,.51-.07,1.17-.12,1.98-.05,.82-.12,1.76-.19,2.84-.08,1.08-.16,2.23-.26,3.46s-.21,2.52-.32,3.86c-.12,1.34-.25,2.67-.38,4l.22,.02c.72-2.93,1.53-5.66,2.43-8.2,.9-2.53,1.92-4.74,3.05-6.6,1.13-1.87,2.37-3.34,3.72-4.41,1.35-1.07,2.84-1.6,4.45-1.6m0-1c-1.84,0-3.54,.61-5.07,1.82-1.44,1.14-2.77,2.71-3.96,4.67-1.13,1.88-2.17,4.11-3.08,6.63,.07-.91,.13-1.77,.19-2.59,.07-1.08,.14-2.03,.19-2.84,.05-.82,.09-1.48,.12-1.99,.03-.54,.05-.87,.05-.98,0-1.37-.27-2.4-.83-3.16-.62-.84-1.61-1.27-2.92-1.27-.63,0-1.69,.18-3.35,.58-1.57,.37-3.64,1.02-6.14,1.93l-.82,.29,.18,.85,.34,1.61,.21,1.02,1.01-.25c.53-.13,1-.25,1.41-.34,.39-.09,.74-.17,1.06-.22,.3-.06,.58-.1,.83-.13,.23-.03,.46-.04,.67-.04,.49,0,.72,.07,.82,.11,.13,.05,.18,.12,.21,.18,.09,.15,.14,.36,.17,.62,.04,.37,.06,.81,.06,1.33,0,.67-.01,1.58-.03,2.74-.02,1.16-.06,2.48-.11,3.94-.05,1.47-.11,3.05-.18,4.75-.07,1.69-.15,3.4-.23,5.12-.09,1.72-.19,3.42-.29,5.09-.11,1.68-.22,3.23-.33,4.62l-.09,1.02,1.02,.06,.36,.02h.19l4.69-.59,.8-.1,.07-.8c.09-.95,.24-2.14,.45-3.54,.21-1.4,.49-2.92,.84-4.51,.34-1.59,.76-3.25,1.24-4.94,.47-1.67,1.01-3.29,1.61-4.81,.59-1.5,1.24-2.89,1.94-4.12,.68-1.18,1.41-2.14,2.18-2.84,.43-.4,.91-.7,1.43-.91,.51-.21,1.03-.31,1.58-.31,.5,0,.96,.09,1.4,.27,.46,.19,.98,.52,1.52,.98l.28,.23h.88l.27-.2c.75-.57,1.32-1.25,1.68-2.02,.35-.75,.53-1.55,.53-2.37,0-.67-.14-1.3-.41-1.87-.27-.56-.63-1.05-1.09-1.46-.45-.41-.99-.72-1.6-.95-.6-.22-1.25-.33-1.93-.33h0Z"/></g><g><path class="c" d="M476.26,86.65c-.75,0-1.45-.1-2.06-.31-.62-.21-1.16-.49-1.59-.84-.44-.36-.79-.78-1.03-1.25-.24-.48-.37-.99-.37-1.52,0-.58,.17-1.17,.5-1.78,.33-.61,.79-1.08,1.35-1.39l.26-.15,.25,.16c.58,.36,1.18,.62,1.77,.77,.6,.15,1.14,.23,1.6,.23,1.12,0,2.11-.3,2.97-.9,.88-.62,1.73-1.57,2.53-2.84,.82-1.3,1.66-2.96,2.49-4.92,.84-1.99,1.79-4.34,2.81-7.01l.22-.59-.58-.07-.08-.33c-.76-2.97-1.57-5.89-2.42-8.67-.85-2.78-1.73-5.6-2.64-8.39-.73-2.23-1.49-4.43-2.25-6.53-.77-2.12-1.54-4.16-2.29-6.06-.11-.28-.19-.5-.23-.67-.05-.19-.07-.36-.07-.52,0-.58,.23-1.08,.69-1.49,.45-.4,1.15-.6,2.14-.6,.42,0,.89,.05,1.4,.14,.52,.1,1.13,.31,1.79,.62l.17,.08,.07,.17c.24,.56,.52,1.25,.83,2.07,.31,.82,.64,1.71,.99,2.69,.35,.98,.71,2,1.07,3.08,.36,1.08,.7,2.15,1.03,3.22,.27,.9,.58,1.94,.94,3.11,.36,1.18,.72,2.41,1.09,3.69,.37,1.28,.72,2.55,1.07,3.82,.18,.67,.35,1.32,.51,1.94,.57-1.48,1.15-3,1.74-4.55,.8-2.09,1.61-4.18,2.43-6.29,.82-2.11,1.64-4.2,2.47-6.27,.82-2.07,1.62-4.07,2.4-6,.16-.4,.39-.73,.68-.99,.27-.24,.57-.44,.9-.59,.32-.14,.66-.25,1.01-.31,.33-.06,.67-.09,.99-.09,.54,0,1.07,.08,1.58,.23,.49,.15,.96,.34,1.4,.56l.49,.24-.29,.47c-.67,1.08-1.37,2.3-2.08,3.62-.73,1.35-1.48,2.78-2.22,4.27-.76,1.52-1.54,3.11-2.29,4.73-.77,1.64-1.53,3.32-2.29,5.03-.76,1.71-1.51,3.43-2.25,5.15-.74,1.72-1.45,3.42-2.14,5.09-.7,1.67-1.37,3.36-1.99,5-.63,1.65-1.24,3.25-1.84,4.8-.6,1.55-1.19,3.04-1.76,4.47-.58,1.43-1.17,2.78-1.77,4.03-.58,1.17-1.2,2.26-1.85,3.27-.66,1.03-1.41,1.92-2.21,2.67-.81,.76-1.72,1.37-2.7,1.81-1,.45-2.11,.67-3.31,.67Z"/><path class="e" d="M503.8,31.03c.49,0,.97,.07,1.43,.21s.9,.32,1.32,.53c-.67,1.09-1.37,2.31-2.1,3.64-.72,1.34-1.47,2.77-2.23,4.28-.76,1.52-1.53,3.1-2.3,4.74-.77,1.65-1.54,3.32-2.3,5.04-.76,1.71-1.51,3.43-2.25,5.16-.74,1.73-1.45,3.43-2.14,5.1-.7,1.69-1.37,3.36-2,5.01-.63,1.65-1.24,3.25-1.84,4.8-.6,1.55-1.19,3.03-1.76,4.46s-1.16,2.76-1.76,4c-.57,1.15-1.17,2.22-1.82,3.22-.64,.99-1.35,1.85-2.13,2.58-.78,.73-1.63,1.3-2.57,1.72-.93,.42-1.97,.63-3.11,.63-.7,0-1.34-.09-1.91-.28-.57-.19-1.05-.44-1.44-.75-.39-.31-.69-.68-.9-1.09-.21-.41-.31-.84-.31-1.29,0-.49,.15-1.01,.44-1.54,.29-.53,.68-.93,1.15-1.2,.63,.39,1.26,.67,1.91,.83,.64,.16,1.22,.25,1.73,.25,1.23,0,2.31-.33,3.25-.99,.94-.66,1.83-1.65,2.67-2.98,.84-1.33,1.68-2.99,2.52-4.99,.84-2,1.78-4.34,2.81-7.03l.45-1.19-.87-.11c-.76-2.99-1.57-5.89-2.42-8.69-.85-2.8-1.73-5.6-2.65-8.4-.73-2.24-1.48-4.43-2.25-6.55-.77-2.12-1.54-4.15-2.3-6.08-.1-.25-.18-.46-.21-.61-.04-.15-.06-.28-.06-.4,0-.43,.18-.81,.53-1.12,.35-.31,.95-.47,1.81-.47,.39,0,.83,.04,1.31,.13,.49,.09,1.04,.28,1.67,.58,.24,.55,.51,1.24,.82,2.05,.31,.81,.64,1.71,.99,2.68,.35,.97,.71,2,1.07,3.07,.36,1.08,.7,2.15,1.03,3.21,.27,.9,.58,1.93,.94,3.11,.36,1.17,.72,2.4,1.09,3.68,.37,1.28,.72,2.55,1.06,3.81,.34,1.26,.64,2.43,.87,3.51,.75-1.96,1.52-3.98,2.32-6.07,.8-2.09,1.61-4.18,2.43-6.29,.82-2.11,1.64-4.2,2.47-6.27,.82-2.07,1.62-4.07,2.4-6,.13-.33,.32-.6,.55-.81,.23-.21,.49-.38,.77-.5,.28-.13,.58-.22,.89-.27,.31-.05,.61-.08,.91-.08m0-1c-.35,0-.72,.03-1.08,.09-.39,.07-.77,.18-1.12,.34-.38,.17-.73,.4-1.04,.68-.34,.31-.61,.7-.8,1.17-.78,1.93-1.58,3.94-2.4,6.01-.82,2.07-1.65,4.16-2.47,6.27-.82,2.11-1.64,4.21-2.44,6.3-.4,1.04-.79,2.07-1.18,3.08-.04-.14-.08-.29-.12-.43-.35-1.27-.7-2.54-1.07-3.82-.37-1.29-.74-2.53-1.09-3.7-.36-1.17-.67-2.21-.94-3.1-.34-1.08-.68-2.17-1.04-3.23-.35-1.06-.71-2.1-1.07-3.1-.35-.98-.68-1.87-.99-2.69-.31-.82-.59-1.53-.84-2.1l-.15-.35-.34-.16c-.72-.34-1.34-.56-1.92-.66-.54-.1-1.04-.15-1.49-.15-1.12,0-1.93,.24-2.47,.73-.56,.5-.86,1.15-.86,1.87,0,.2,.03,.42,.09,.65,.05,.19,.13,.44,.26,.74,.75,1.89,1.52,3.92,2.28,6.04,.76,2.1,1.52,4.29,2.24,6.52,.91,2.78,1.8,5.6,2.64,8.38,.84,2.77,1.65,5.68,2.41,8.65l.17,.66,.29,.04h0c-1.02,2.66-1.96,5.02-2.8,7-.82,1.93-1.64,3.57-2.45,4.85-.76,1.21-1.57,2.12-2.39,2.7-.78,.54-1.65,.81-2.68,.81-.42,0-.92-.07-1.48-.22-.54-.14-1.09-.38-1.63-.71l-.5-.31-.51,.29c-.64,.36-1.16,.9-1.54,1.59-.37,.68-.56,1.36-.56,2.02,0,.61,.14,1.19,.42,1.74,.27,.53,.66,1.01,1.16,1.41,.48,.39,1.07,.7,1.75,.92,.67,.22,1.42,.33,2.22,.33,1.27,0,2.45-.24,3.51-.72,1.03-.46,1.99-1.1,2.84-1.9,.83-.77,1.6-1.71,2.29-2.77,.66-1.03,1.29-2.14,1.87-3.32,.61-1.27,1.21-2.63,1.79-4.07,.57-1.43,1.17-2.93,1.77-4.48,.6-1.55,1.21-3.15,1.84-4.8,.62-1.64,1.29-3.32,1.98-4.98,.69-1.68,1.41-3.39,2.14-5.09,.74-1.73,1.5-3.46,2.25-5.14,.75-1.69,1.52-3.37,2.29-5.02,.76-1.61,1.53-3.2,2.29-4.72,.74-1.48,1.49-2.91,2.22-4.26,.71-1.31,1.41-2.52,2.07-3.59l.58-.93-.98-.49c-.47-.23-.96-.43-1.48-.59-.56-.17-1.14-.26-1.73-.26h0Z"/></g></g><path class="d" d="M476.26,86.15s-260.42,14.22-393.22,.5c-1.11-.12-2.21-.23-3.29-.35-.06-.01-.13-.02-.2-.02-1.01-.12-2-.23-2.99-.34l-1.56-.18c-4.13-.49-8.01-.99-11.65-1.5-.57-.08-1.14-.16-1.7-.24-.64-.09-1.27-.19-1.89-.28-.14-.02-.28-.04-.41-.06C1.76,75.08,7.08,63.86,7.08,63.86v-3.36l17.09-.06,48.77,.37,59.3,.06,17.08,.64,18.3-.43,24.54,.43,29.08-1.36,19.49,1.11,26.93,.22,46.56-1.8,16.47,.99,24.77,.39,44.71-.91,24.22,1.26,18.5-.2,16.7-2.58s1.42,15.59,16.67,22.62v4.9Z"/></svg>